<?xml version="1.0" standalone="no"?>
<!DOCTYPE svg PUBLIC "-//W3C//DTD SVG 1.1//EN" "http://www.w3.org/Graphics/SVG/1.1/DTD/svg11.dtd" >
<svg xmlns="http://www.w3.org/2000/svg" width="100%" height="100%">
<metadata>
Created by FontXChange 20110222 at Tue Apr 28 18:18:59 2015
 By Ahmed Ghazi
Copyright 1990 as an unpublished work by Bitstream Inc.  All rights reserved.  Confidential.
</metadata>
<defs>
<font id="EngraversGothicBT-Regular" horiz-adv-x="500" >
  <font-face 
    font-family="Engravers Gothic"
    font-weight="400"
    font-stretch="normal"
    units-per-em="1000"
    panose-1="2 0 5 3 0 0 0 0 0 0"
    ascent="800"
    descent="-200"
    x-height="416"
    cap-height="542"
    bbox="-167 -236 1181 828"
    underline-thickness="41"
    underline-position="-68"
    stemh="60"
    stemv="64"
    unicode-range="U+0020-FB02"
  />
    <missing-glyph />
    <glyph glyph-name="space" unicode=" " horiz-adv-x="333" 
 />
    <glyph glyph-name="exclam" unicode="!" horiz-adv-x="333" 
d="M167 75c22 0 40 -18 40 -45s-18 -44 -40 -44s-41 17 -41 44s19 45 41 45zM196 140h-58l-8 399h74z" />
    <glyph glyph-name="quotedbl" unicode="&#x22;" horiz-adv-x="278" 
d="M97 700v-270h-49v270h49zM231 700v-270h-50v270h50z" />
    <glyph glyph-name="numbersign" unicode="#" horiz-adv-x="769" 
d="M448 710l-82 -236h129l84 236h62l-83 -236h154l-18 -52h-155l-48 -136h166l-18 -52h-166l-83 -234h-63l84 234h-131l-84 -234h-62l83 234h-160l19 52h159l49 136h-172l17 52h173l84 236h62zM476 422h-130l-47 -136h130z" />
    <glyph glyph-name="dollar" unicode="$" horiz-adv-x="667" 
d="M305 310v155c-82 -4 -129 -39 -129 -80c0 -44 43 -68 129 -75zM87 77l37 54c58 -45 120 -72 181 -81v200c-129 7 -196 54 -196 132s75 141 196 143v80h57v-85c72 -12 133 -37 191 -80l-34 -51c-49 38 -99 62 -157 72v-154c142 -3 219 -66 219 -156
c0 -88 -84 -165 -219 -165v-114h-57v117c-82 9 -152 37 -218 88zM362 247v-202c97 6 152 50 152 108c0 54 -53 94 -152 94z" />
    <glyph glyph-name="percent" unicode="%" horiz-adv-x="843" 
d="M179 214c-87 0 -154 65 -154 155s66 156 154 156c89 0 153 -66 153 -156s-65 -155 -153 -155zM179 272c52 0 91 43 91 98c0 56 -39 97 -91 97c-51 0 -90 -40 -90 -97c0 -56 39 -98 90 -98zM523 513h70l-274 -513h-70zM663 -14c-87 0 -153 65 -153 155s65 155 153 155
c89 0 154 -65 154 -155s-66 -155 -154 -155zM663 44c52 0 91 42 91 97c0 56 -39 98 -91 98c-51 0 -90 -41 -90 -98c0 -56 39 -97 90 -97z" />
    <glyph glyph-name="ampersand" unicode="&#x26;" horiz-adv-x="618" 
d="M580 174c-15 -21 -32 -40 -53 -59l96 -111h-86l-60 68c-69 -58 -132 -87 -209 -87c-122 0 -201 69 -201 175c0 86 53 150 162 204l-148 175h354l37 -59h-253l264 -311c16 16 35 35 54 60zM437 121l-166 195c-89 -38 -133 -89 -133 -153c0 -68 52 -115 129 -115
c59 0 116 25 170 73z" />
    <glyph glyph-name="quoteright" unicode="&#x2019;" horiz-adv-x="333" 
d="M121 374c20 29 34 58 43 86h-5c-19 0 -34 17 -34 43c0 28 18 48 42 48c25 0 46 -23 46 -66c0 -36 -25 -79 -74 -128z" />
    <glyph glyph-name="parenleft" unicode="(" horiz-adv-x="273" 
d="M190 551l32 -38c-70 -60 -100 -137 -100 -244s30 -185 100 -245l-32 -38c-91 83 -133 171 -133 283s42 199 133 282z" />
    <glyph glyph-name="parenright" unicode=")" horiz-adv-x="273" 
d="M83 551c91 -83 133 -170 133 -282s-42 -200 -133 -283l-32 38c70 60 100 138 100 245s-30 184 -100 244z" />
    <glyph glyph-name="asterisk" unicode="*" 
d="M249 356l-69 -101l-43 30l78 97l-114 30l18 50l108 -40v117h47l-2 -117l109 38l17 -49l-115 -31l79 -95l-44 -32z" />
    <glyph glyph-name="plus" unicode="+" horiz-adv-x="833" 
d="M441 596v-274h268v-48h-268v-274h-48v274h-269v48h269v274h48z" />
    <glyph glyph-name="comma" unicode="," horiz-adv-x="333" 
d="M121 -85c20 29 34 57 43 85h-4c-19 0 -35 18 -35 44c0 28 18 48 42 48c25 0 46 -23 46 -66c0 -36 -25 -79 -74 -128z" />
    <glyph glyph-name="hyphen" unicode="-" horiz-adv-x="257" 
d="M23 298h211v-59h-211v59z" />
    <glyph glyph-name="period" unicode="." horiz-adv-x="333" 
d="M167 75c22 0 40 -18 40 -45s-18 -44 -40 -44s-41 17 -41 44s19 45 41 45z" />
    <glyph glyph-name="slash" unicode="/" horiz-adv-x="278" 
d="M238 551h59l-257 -644h-59z" />
    <glyph glyph-name="zero" unicode="0" horiz-adv-x="667" 
d="M333 -14c-176 0 -296 117 -296 269s120 270 296 270s297 -118 297 -270s-121 -269 -297 -269zM333 48c135 0 227 92 227 207c0 116 -91 207 -227 207s-227 -91 -227 -207c0 -115 93 -207 227 -207z" />
    <glyph glyph-name="one" unicode="1" horiz-adv-x="667" 
d="M299 -3v518h68v-518h-68z" />
    <glyph glyph-name="two" unicode="2" horiz-adv-x="667" 
d="M117 0c-1 36 -2 57 -2 64c0 102 32 157 151 199c150 53 229 67 229 119c0 43 -48 80 -127 80c-68 0 -134 -28 -208 -80l-40 52c78 60 156 91 242 91c126 0 203 -66 203 -144c0 -89 -84 -111 -211 -154c-116 -39 -171 -59 -171 -139c0 -8 1 -17 2 -26h390v-62h-458z" />
    <glyph glyph-name="three" unicode="3" horiz-adv-x="667" 
d="M99 156c81 -74 151 -108 248 -108c122 0 195 56 195 112c0 62 -57 91 -171 91h-23v62c12 -1 24 -1 34 -1c81 0 121 20 121 69c0 46 -48 81 -131 81c-72 0 -140 -25 -209 -75l-40 55c73 54 159 83 252 83c123 0 197 -59 197 -144c0 -40 -16 -71 -47 -95
c57 -25 87 -67 87 -124c0 -91 -100 -176 -261 -176c-118 0 -210 36 -294 119z" />
    <glyph glyph-name="four" unicode="4" horiz-adv-x="667" 
d="M466 0v124h-410v63l410 326h67v-326h86v-63h-86v-124h-67zM159 187h307v244z" />
    <glyph glyph-name="five" unicode="5" horiz-adv-x="667" 
d="M81 81l34 57c83 -58 153 -89 230 -89c100 0 169 61 169 135c0 63 -65 116 -176 116c-63 0 -117 -17 -176 -52h-42v265h415v-63h-348v-114c53 17 102 27 151 27c152 0 246 -82 246 -187c0 -101 -95 -190 -242 -190c-92 0 -177 32 -261 95z" />
    <glyph glyph-name="six" unicode="6" horiz-adv-x="667" 
d="M549 390c-60 48 -127 72 -192 72c-123 0 -207 -63 -223 -162c78 41 149 61 231 61c151 0 255 -80 255 -187s-93 -188 -246 -188c-191 0 -316 124 -316 273c0 155 119 266 296 266c90 0 163 -28 234 -88zM133 226c12 -96 114 -177 241 -177c105 0 176 60 176 124
c0 70 -79 125 -183 125c-80 0 -154 -24 -234 -72z" />
    <glyph glyph-name="seven" unicode="7" horiz-adv-x="667" 
d="M184 0l315 450h-395v63h521l-362 -513h-79z" />
    <glyph glyph-name="eight" unicode="8" horiz-adv-x="667" 
d="M484 389c0 40 -53 73 -151 73c-97 0 -150 -32 -150 -75c0 -41 51 -68 150 -68s151 26 151 70zM497 292c62 -29 92 -72 92 -132c0 -102 -93 -174 -256 -174s-257 71 -257 173c0 60 31 105 93 133c-37 24 -57 56 -57 94c0 81 80 138 221 138s221 -57 221 -138
c0 -38 -20 -70 -57 -94zM146 159c0 -63 67 -110 187 -110s186 47 186 110c0 74 -64 97 -186 97s-187 -23 -187 -97z" />
    <glyph glyph-name="nine" unicode="9" horiz-adv-x="667" 
d="M118 120c60 -48 127 -71 192 -71c123 0 207 62 223 161c-78 -41 -149 -60 -231 -60c-151 0 -256 80 -256 187s94 188 247 188c191 0 316 -124 316 -273c0 -155 -119 -266 -296 -266c-90 0 -164 28 -235 88zM533 285c-12 96 -114 177 -241 177c-105 0 -176 -61 -176 -125
c0 -70 80 -125 184 -125c80 0 153 25 233 73z" />
    <glyph glyph-name="colon" unicode=":" horiz-adv-x="333" 
d="M167 355c22 0 40 -17 40 -44s-18 -45 -40 -45s-41 18 -41 45s19 44 41 44zM167 75c22 0 40 -18 40 -45s-18 -44 -40 -44s-41 17 -41 44s19 45 41 45z" />
    <glyph glyph-name="semicolon" unicode=";" horiz-adv-x="333" 
d="M121 -85c20 29 34 57 43 85h-4c-19 0 -35 18 -35 44c0 28 18 48 42 48c25 0 46 -23 46 -66c0 -36 -25 -79 -74 -128zM167 355c22 0 40 -17 40 -44s-18 -45 -40 -45s-41 18 -41 45s19 44 41 44z" />
    <glyph glyph-name="less" unicode="&#x3c;" horiz-adv-x="833" 
d="M704 501l-499 -203l499 -202v-53l-575 235v40l575 236v-53z" />
    <glyph glyph-name="equal" unicode="=" horiz-adv-x="833" 
d="M709 413v-48h-585v48h585zM709 231v-48h-585v48h585z" />
    <glyph glyph-name="greater" unicode="&#x3e;" horiz-adv-x="833" 
d="M704 318v-40l-575 -235v53l499 202l-499 203v53z" />
    <glyph glyph-name="question" unicode="?" horiz-adv-x="361" 
d="M160 75c22 0 41 -18 41 -45s-19 -44 -41 -44s-41 17 -41 44s19 45 41 45zM125 131v87c0 45 20 65 41 86l83 83c14 14 18 25 18 43c0 34 -30 60 -78 60c-53 0 -89 -27 -100 -75l-62 23c20 75 75 113 163 113c91 0 145 -50 145 -127c0 -32 -13 -57 -38 -81l-85 -83
c-14 -14 -20 -34 -20 -59v-70h-67z" />
    <glyph glyph-name="at" unicode="@" horiz-adv-x="1000" 
d="M591 229l30 121c-12 61 -52 97 -105 97c-102 0 -173 -100 -173 -230c0 -73 38 -115 101 -115c69 0 128 50 147 127zM634 408l29 61h46l-68 -274c-5 -22 -8 -36 -8 -45c0 -28 19 -45 52 -45c32 0 69 13 103 40c62 49 100 135 100 238c0 161 -138 283 -345 283
c-114 0 -208 -32 -284 -97c-96 -82 -145 -190 -145 -319c0 -112 37 -196 119 -262c65 -53 161 -85 266 -85c113 0 222 34 310 94l19 -27c-96 -72 -203 -108 -319 -108c-124 0 -226 30 -304 90c-101 77 -148 176 -148 310c0 133 57 251 165 340c86 71 195 108 322 108
c109 0 207 -32 272 -82c84 -65 127 -150 127 -248c0 -112 -42 -204 -119 -265c-45 -35 -98 -54 -151 -54c-63 0 -94 24 -94 74c0 4 1 9 1 14c-33 -57 -84 -88 -144 -88c-100 0 -153 56 -153 160c0 152 102 267 227 267c61 0 103 -27 124 -80z" />
    <glyph glyph-name="A" unicode="A" horiz-adv-x="588" 
d="M0 0l264 539h56l267 -539h-73l-73 145h-298l-71 -145h-72zM174 208h237l-119 239z" />
    <glyph glyph-name="B" unicode="B" horiz-adv-x="653" 
d="M81 0v539h319c108 0 161 -47 161 -134c0 -43 -17 -78 -49 -99c58 -33 87 -82 87 -144c0 -98 -68 -162 -182 -162h-336zM148 62h282c63 0 99 40 99 101c0 60 -36 101 -99 101h-282v-202zM148 326h258c57 0 87 27 87 75c0 51 -29 76 -87 76h-258v-151z" />
    <glyph glyph-name="C" unicode="C" horiz-adv-x="604" 
d="M511 172l54 -40c-50 -94 -139 -146 -248 -146c-161 0 -279 118 -279 282s118 283 279 283c100 0 185 -46 236 -126l-56 -40c-34 65 -102 103 -180 103c-120 0 -210 -92 -210 -220s90 -219 210 -219c84 0 151 42 194 123z" />
    <glyph glyph-name="D" unicode="D" horiz-adv-x="632" 
d="M312 539c175 0 283 -115 283 -271c0 -155 -103 -268 -283 -268h-231v539h231zM312 477h-164v-415h164c139 0 214 86 214 207s-80 208 -214 208z" />
    <glyph glyph-name="E" unicode="E" horiz-adv-x="546" 
d="M81 0v539h424v-62h-357v-158h216v-62h-216v-195h379v-62h-446z" />
    <glyph glyph-name="F" unicode="F" horiz-adv-x="495" 
d="M81 0v539h424v-62h-357v-158h216v-62h-216v-257h-67z" />
    <glyph glyph-name="G" unicode="G" horiz-adv-x="618" 
d="M494 146v79h-147v62h214v-162c-52 -90 -138 -139 -244 -139c-161 0 -279 118 -279 282s118 283 279 283c100 0 185 -46 236 -126l-56 -40c-34 65 -102 103 -180 103c-120 0 -210 -92 -210 -220s90 -219 210 -219c75 0 134 32 177 97z" />
    <glyph glyph-name="H" unicode="H" horiz-adv-x="616" 
d="M81 0v539h68v-213h318v213h67v-539h-67v264h-318v-264h-68z" />
    <glyph glyph-name="I" unicode="I" horiz-adv-x="231" 
d="M82 -2v544h68v-544h-68z" />
    <glyph glyph-name="J" unicode="J" horiz-adv-x="537" 
d="M19 232h67v-84c0 -72 52 -99 163 -99c117 0 147 34 147 141v349h67v-367c0 -133 -64 -186 -226 -186c-147 0 -218 51 -218 160v86z" />
    <glyph glyph-name="K" unicode="K" horiz-adv-x="586" 
d="M81 0v540h67v-269l309 269h88l-218 -192l251 -348h-81l-218 302l-131 -110v-192h-67z" />
    <glyph glyph-name="L" unicode="L" 
d="M81 0v539h67v-477h352v-62h-419z" />
    <glyph glyph-name="M" unicode="M" horiz-adv-x="715" 
d="M78 0v539h62l218 -330l219 330h61v-539h-66v421l-214 -319l-214 319v-421h-66z" />
    <glyph glyph-name="N" unicode="N" horiz-adv-x="613" 
d="M81 0v539h35l350 -403v403h67v-539h-34l-351 403v-403h-67z" />
    <glyph glyph-name="O" unicode="O" horiz-adv-x="634" 
d="M317 -14c-161 0 -279 118 -279 282s118 283 279 283s280 -119 280 -283s-119 -282 -280 -282zM317 49c121 0 210 92 210 219c0 128 -89 220 -210 220c-120 0 -210 -92 -210 -220s90 -219 210 -219z" />
    <glyph glyph-name="P" unicode="P" horiz-adv-x="586" 
d="M78 0v539h309c106 0 169 -56 169 -146s-59 -157 -160 -157h-251v-236h-67zM145 299h238c68 0 103 31 103 88c0 56 -35 90 -100 90h-241v-178z" />
    <glyph glyph-name="Q" unicode="Q" horiz-adv-x="634" 
d="M353 -12c-16 -2 -29 -2 -42 -2c-152 0 -273 118 -273 282s118 283 279 283s280 -119 280 -283c0 -122 -64 -219 -176 -265l36 -74h-75zM324 50l-33 69h75l27 -57c84 33 134 110 134 206c0 127 -89 220 -210 220c-120 0 -210 -92 -210 -220c0 -126 87 -218 208 -218h9z
" />
    <glyph glyph-name="R" unicode="R" horiz-adv-x="597" 
d="M78 0v539h309c106 0 169 -56 169 -150c0 -76 -49 -138 -128 -152l135 -237h-74l-135 236h-209v-236h-67zM145 299h238c68 0 103 31 103 88c0 56 -35 90 -100 90h-241v-178z" />
    <glyph glyph-name="S" unicode="S" horiz-adv-x="597" 
d="M30 81l39 58c77 -60 162 -91 241 -91c103 0 168 49 168 113c0 49 -42 89 -126 96c-92 7 -165 8 -222 34c-50 24 -77 63 -77 111c0 83 81 149 209 149c91 0 180 -31 258 -88l-39 -56c-67 54 -141 81 -218 81c-85 0 -140 -38 -140 -83c0 -20 9 -35 26 -48
c46 -35 123 -27 222 -38c113 -13 178 -78 178 -160c0 -93 -86 -173 -238 -173c-106 0 -197 30 -281 95z" />
    <glyph glyph-name="T" unicode="T" horiz-adv-x="417" 
d="M175 0v477h-227v62h521v-62h-227v-477h-67z" />
    <glyph glyph-name="U" unicode="U" horiz-adv-x="579" 
d="M134 539v-349c0 -112 32 -141 155 -141s155 29 155 141v349h67v-367c0 -132 -63 -186 -222 -186s-222 54 -222 186v367h67z" />
    <glyph glyph-name="V" unicode="V" horiz-adv-x="549" 
d="M295 0h-42l-260 539h73l208 -432l208 432h74z" />
    <glyph glyph-name="W" unicode="W" horiz-adv-x="720" 
d="M170 0l-176 539h66l134 -416l137 416h60l137 -415l134 415h64l-175 -539h-49l-142 434l-141 -434h-49z" />
    <glyph glyph-name="X" unicode="X" horiz-adv-x="549" 
d="M14 0l220 271l-217 268h82l177 -216l176 216h81l-217 -265l223 -274h-86l-179 222l-181 -222h-79z" />
    <glyph glyph-name="Y" unicode="Y" horiz-adv-x="454" 
d="M193 0v270l-243 269h84l193 -213l192 213h85l-244 -270v-269h-67z" />
    <glyph glyph-name="Z" unicode="Z" horiz-adv-x="509" 
d="M-2 0l364 477h-333v62h455l-356 -477h354v-62h-484z" />
    <glyph glyph-name="bracketleft" unicode="[" horiz-adv-x="273" 
d="M56 0v539h156v-58h-94v-423h94v-58h-156z" />
    <glyph glyph-name="backslash" unicode="\" horiz-adv-x="278" 
d="M238 -93l-257 644h59l257 -644h-59z" />
    <glyph glyph-name="bracketright" unicode="]" horiz-adv-x="273" 
d="M218 0h-157v58h94v423h-94v58h157v-539z" />
    <glyph glyph-name="asciicircum" unicode="^" horiz-adv-x="1000" 
d="M534 712l259 -272h-70l-223 222l-224 -222h-70l260 272h68z" />
    <glyph glyph-name="underscore" unicode="_" 
d="M500 -187v-49h-500v49h500z" />
    <glyph glyph-name="quoteleft" unicode="&#x2018;" horiz-adv-x="333" 
d="M213 534c-20 -29 -35 -58 -44 -86h4c19 0 35 -18 35 -44c0 -28 -17 -47 -41 -47c-25 0 -46 22 -46 65c0 36 24 80 73 129z" />
    <glyph glyph-name="a" unicode="a" horiz-adv-x="449" 
d="M-9 0l212 417h41l214 -417h-70l-54 106h-220l-54 -106h-69zM142 161h163l-81 160z" />
    <glyph glyph-name="b" unicode="b" horiz-adv-x="544" 
d="M72 0v416h256c86 0 129 -36 129 -103c0 -34 -14 -61 -40 -77c46 -26 70 -64 70 -111c0 -75 -52 -125 -146 -125h-269zM348 197h-211v-137h211c46 0 72 26 72 69c0 42 -25 68 -72 68zM326 356h-189v-98h190c42 0 63 17 63 49c0 33 -21 49 -64 49z" />
    <glyph glyph-name="c" unicode="c" horiz-adv-x="551" 
d="M512 102c-47 -74 -126 -115 -225 -115c-148 0 -252 94 -252 220s104 221 252 221c92 0 169 -36 214 -98l-52 -36c-34 47 -92 74 -162 74c-108 0 -185 -69 -185 -160s78 -160 185 -160c75 0 130 29 173 90z" />
    <glyph glyph-name="d" unicode="d" horiz-adv-x="516" 
d="M258 357h-121v-297h121c104 0 159 62 159 148c0 85 -61 149 -159 149zM257 417c141 0 227 -90 227 -210s-82 -207 -227 -207h-185v417h185z" />
    <glyph glyph-name="e" unicode="e" horiz-adv-x="502" 
d="M71 0v417h391v-61h-326v-104h214v-60h-214v-132h344v-60h-409z" />
    <glyph glyph-name="f" unicode="f" horiz-adv-x="470" 
d="M136 192v-192h-65v417h385v-61h-320v-104h207v-60h-207z" />
    <glyph glyph-name="g" unicode="g" horiz-adv-x="574" 
d="M354 162v60h172v-126c-48 -71 -126 -109 -229 -109c-158 0 -262 96 -262 220s105 221 262 221c97 0 172 -34 221 -98l-50 -36c-35 46 -98 74 -171 74c-118 0 -195 -71 -195 -160s76 -160 195 -160c75 0 140 31 163 69v45h-106z" />
    <glyph glyph-name="h" unicode="h" horiz-adv-x="565" 
d="M136 194v-194h-65v417h65v-162h293v162h65v-417h-65v194h-293z" />
    <glyph glyph-name="i" unicode="i" horiz-adv-x="211" 
d="M72 -1v419h66v-419h-66z" />
    <glyph glyph-name="j" unicode="j" horiz-adv-x="447" 
d="M24 178h65v-44c0 -61 38 -87 119 -87c86 0 108 30 108 122v247h65v-268c0 -116 -52 -161 -181 -161c-118 0 -176 44 -176 138v53z" />
    <glyph glyph-name="k" unicode="k" horiz-adv-x="475" 
d="M72 0v416h65v-185l221 185h86l-175 -148l201 -268h-73l-174 230l-86 -73v-157h-65z" />
    <glyph glyph-name="l" unicode="l" horiz-adv-x="449" 
d="M71 0v417h65v-357h310v-60h-375z" />
    <glyph glyph-name="m" unicode="m" horiz-adv-x="593" 
d="M71 0v417h54l171 -244l171 244h54v-417h-65v300l-160 -232l-160 232v-300h-65z" />
    <glyph glyph-name="n" unicode="n" horiz-adv-x="507" 
d="M72 0v417h34l265 -293v293h64v-417h-34l-265 292v-292h-64z" />
    <glyph glyph-name="o" unicode="o" horiz-adv-x="581" 
d="M290 -13c-153 0 -255 98 -255 221c0 124 102 220 255 220c154 0 256 -95 256 -220c0 -124 -102 -221 -256 -221zM290 48c116 0 189 71 189 160s-74 160 -189 160c-114 0 -188 -70 -188 -160s74 -160 188 -160z" />
    <glyph glyph-name="p" unicode="p" horiz-adv-x="532" 
d="M137 182v-182h-65v417h303c86 0 136 -43 136 -116c0 -66 -48 -119 -129 -119h-245zM137 243h238c45 0 69 21 69 57c0 35 -23 56 -66 56h-241v-113z" />
    <glyph glyph-name="q" unicode="q" horiz-adv-x="581" 
d="M414 12l57 -69h-80l-41 49c-30 -3 -50 -5 -60 -5c-153 0 -255 98 -255 221c0 124 102 220 255 220c154 0 256 -95 256 -220c0 -93 -56 -160 -132 -196zM373 60c69 29 106 85 106 148c0 89 -74 160 -189 160c-114 0 -188 -70 -188 -160c0 -88 73 -160 183 -160
c6 0 12 1 18 1l-42 51h79z" />
    <glyph glyph-name="r" unicode="r" horiz-adv-x="542" 
d="M137 182v-182h-65v416h287c85 0 136 -43 136 -116c0 -58 -40 -107 -103 -117l116 -183h-71l-118 182h-182zM137 243h222c45 0 69 20 69 57c0 36 -24 56 -69 56h-222v-113z" />
    <glyph glyph-name="s" unicode="s" horiz-adv-x="495" 
d="M35 53l32 55c60 -40 132 -61 191 -61c78 0 124 36 124 81c0 49 -43 70 -130 72c-128 2 -199 20 -199 109c0 69 64 119 172 119c72 0 139 -20 202 -60l-33 -54c-54 36 -117 55 -170 55c-66 0 -105 -26 -105 -60c0 -40 43 -51 130 -51c134 0 201 -46 201 -134
c0 -74 -69 -137 -185 -137c-79 0 -162 23 -230 66z" />
    <glyph glyph-name="t" unicode="t" horiz-adv-x="405" 
d="M170 0v359h-176v58h417v-58h-176v-359h-65z" />
    <glyph glyph-name="u" unicode="u" horiz-adv-x="556" 
d="M72 416h65v-267c0 -82 31 -102 141 -102s141 20 141 102v267h65v-284c0 -103 -62 -145 -207 -145c-147 0 -205 42 -205 145v284z" />
    <glyph glyph-name="v" unicode="v" horiz-adv-x="472" 
d="M253 0h-34l-209 417h69l157 -312l154 312h72z" />
    <glyph glyph-name="w" unicode="w" horiz-adv-x="613" 
d="M150 0l-141 417h64l102 -305l105 305h54l105 -305l102 305h64l-140 -417h-47l-111 321l-111 -321h-46z" />
    <glyph glyph-name="x" unicode="x" horiz-adv-x="451" 
d="M10 0l175 209l-173 208h79l134 -160l134 160h80l-174 -206l176 -211h-79l-137 163l-138 -163h-77z" />
    <glyph glyph-name="y" unicode="y" horiz-adv-x="447" 
d="M191 0v213l-190 204h84l138 -148l136 148h87l-191 -203v-214h-64z" />
    <glyph glyph-name="z" unicode="z" horiz-adv-x="437" 
d="M17 0l270 356h-246v61h366l-272 -357h270v-60h-388z" />
    <glyph glyph-name="braceleft" unicode="{" 
d="M417 669h-18c-92 0 -109 -31 -109 -124v-118c0 -97 -16 -145 -96 -168c80 -23 96 -71 96 -168v-118c0 -92 16 -124 105 -124c7 0 14 1 22 1v-52h-23c-137 0 -164 44 -164 180v119c0 99 -32 137 -123 137c-7 0 -14 -1 -22 -1v53c8 0 15 -1 22 -1c91 0 123 38 123 137v118
c0 136 28 181 164 181h23v-52z" />
    <glyph glyph-name="bar" unicode="|" 
d="M277 764v-1000h-53v1000h53z" />
    <glyph glyph-name="braceright" unicode="}" 
d="M271 540v-118c0 -99 32 -137 123 -137c7 0 14 1 22 1v-53c-8 0 -15 1 -22 1c-91 0 -123 -38 -123 -137v-119c0 -136 -28 -180 -164 -180h-23v52h19c90 0 108 29 108 123v118c0 97 15 145 96 168c-81 23 -96 71 -96 168v118c0 93 -16 125 -105 125c-7 0 -14 -1 -22 -1v52
h23c136 0 164 -45 164 -181z" />
    <glyph glyph-name="asciitilde" unicode="~" horiz-adv-x="833" 
d="M747 311c-66 -47 -128 -70 -189 -70c-54 0 -98 18 -141 33c-47 17 -91 34 -141 34c-59 0 -118 -28 -189 -78v55c68 47 130 71 189 71c54 0 97 -17 141 -33c48 -17 92 -35 141 -35c60 0 119 28 189 78v-55z" />
    <glyph glyph-name="exclamdown" unicode="&#xa1;" horiz-adv-x="333" 
d="M167 462c-22 0 -41 18 -41 45s19 44 41 44s40 -17 40 -44s-18 -45 -40 -45zM196 397l8 -399h-74l8 399h58z" />
    <glyph glyph-name="cent" unicode="&#xa2;" horiz-adv-x="667" 
d="M489 341c-24 39 -58 62 -107 71v-315c54 13 87 38 116 88l54 -36c-36 -66 -94 -104 -170 -113v-164h-58v163c-118 16 -195 105 -195 220c0 116 78 204 195 219v131h58v-132c69 -7 123 -40 160 -95zM324 98v315c-76 -13 -128 -77 -128 -158s48 -141 128 -157z" />
    <glyph glyph-name="sterling" unicode="&#xa3;" horiz-adv-x="667" 
d="M116 0l4 62h59l-14 162h-76v63h71l-5 42c-1 10 -2 19 -2 28c0 104 75 168 198 168c88 0 166 -33 242 -91l-40 -52c-74 52 -138 80 -200 80c-82 0 -134 -45 -134 -113c0 -9 1 -21 2 -34l3 -28h167v-63h-161l14 -162h351v-62h-479z" />
    <glyph glyph-name="fraction" unicode="&#x2044;" horiz-adv-x="167" 
d="M266 524h67l-432 -538h-68z" />
    <glyph glyph-name="yen" unicode="&#xa5;" horiz-adv-x="630" 
d="M445 371h128v-45h-167l-53 -56h220v-45h-226v-225h-65v225h-225v45h218l-50 56h-168v45h127l-138 153h82l187 -207l186 207h83z" />
    <glyph glyph-name="florin" unicode="&#x192;" horiz-adv-x="667" 
d="M316 37c-24 -109 -74 -165 -180 -165c-28 0 -62 7 -103 18l22 59c30 -9 56 -14 76 -14c67 0 102 34 117 106l52 241h-120l13 63h120l20 95c23 110 76 165 180 165c28 0 62 -7 103 -18l-22 -59c-30 9 -56 14 -76 14c-66 0 -103 -34 -118 -106l-18 -91h136l-13 -63h-136z
" />
    <glyph glyph-name="section" unicode="&#xa7;" 
d="M305 148c24 14 37 38 37 61c0 34 -24 50 -66 73l-81 46c-26 -15 -40 -34 -40 -56c0 -35 25 -51 67 -76zM115 37h64v-2c0 -42 27 -65 73 -65c39 0 64 20 64 53c0 34 -28 55 -84 85l-68 37c-51 28 -76 62 -76 106c0 41 23 79 67 108c-23 19 -34 43 -34 75
c0 68 51 117 125 117c80 0 130 -45 130 -119v-4h-64c-1 41 -28 66 -66 66c-37 0 -59 -20 -59 -51c0 -28 19 -45 56 -65l93 -50c50 -27 75 -60 75 -109c0 -47 -28 -91 -69 -107c26 -22 39 -49 39 -81c0 -66 -55 -120 -136 -120c-77 0 -130 49 -130 124v2z" />
    <glyph glyph-name="currency" unicode="&#xa4;" horiz-adv-x="606" 
d="M176 591c38 29 80 44 127 44s91 -15 128 -44l100 100l32 -32l-100 -100c28 -38 43 -81 43 -127s-15 -88 -43 -126l100 -101l-32 -32l-100 100c-38 -29 -81 -44 -128 -44s-88 15 -127 44l-100 -100l-32 32l100 101c-28 38 -44 80 -44 126s16 89 44 127l-100 100l32 32z
M461 433c0 86 -69 157 -157 157c-87 0 -159 -71 -159 -157c0 -87 72 -159 159 -159c88 0 157 73 157 159z" />
    <glyph glyph-name="quotesingle" unicode="'" horiz-adv-x="144" 
d="M97 700v-270h-49v270h49z" />
    <glyph glyph-name="quotedblleft" unicode="&#x201c;" horiz-adv-x="495" 
d="M375 534c-20 -29 -35 -58 -44 -86h4c19 0 35 -18 35 -44c0 -28 -17 -47 -41 -47c-25 0 -46 22 -46 65c0 36 24 80 73 129zM213 534c-20 -29 -35 -58 -44 -86h4c19 0 35 -18 35 -44c0 -28 -17 -47 -41 -47c-25 0 -46 22 -46 65c0 36 24 80 73 129z" />
    <glyph glyph-name="guillemotleft" unicode="&#xab;" horiz-adv-x="405" 
d="M381 41l-158 118v97l158 119v-71l-124 -96l124 -98v-69zM181 41l-158 118v97l158 119v-71l-124 -96l124 -98v-69z" />
    <glyph glyph-name="guilsinglleft" unicode="&#x2039;" horiz-adv-x="204" 
d="M181 41l-158 118v97l158 119v-71l-124 -96l124 -98v-69z" />
    <glyph glyph-name="guilsinglright" unicode="&#x203a;" horiz-adv-x="204" 
d="M23 41v69l124 98l-124 96v71l158 -119v-97z" />
    <glyph glyph-name="fi" unicode="&#xfb01;" horiz-adv-x="681" 
d="M136 192v-192h-65v417h385v-61h-320v-104h207v-60h-207zM542 -1v419h66v-419h-66z" />
    <glyph glyph-name="fl" unicode="&#xfb02;" horiz-adv-x="919" 
d="M136 192v-192h-65v417h385v-61h-320v-104h207v-60h-207zM541 0v417h65v-357h310v-60h-375z" />
    <glyph glyph-name="endash" unicode="&#x2013;" 
d="M0 289h500v-41h-500v41z" />
    <glyph glyph-name="dagger" unicode="&#x2020;" 
d="M219 -75v405h-138v57h138v152h63v-152h137v-57h-137v-405h-63z" />
    <glyph glyph-name="daggerdbl" unicode="&#x2021;" 
d="M218 330h-137v58h137v151h64v-151h137v-58h-137v-196h137v-58h-137v-151h-64v151h-137v58h137v196z" />
    <glyph glyph-name="periodcentered" unicode="&#xb7;" horiz-adv-x="333" 
d="M125 261c0 24 18 42 41 42s43 -18 43 -42c0 -23 -19 -42 -43 -42c-23 0 -41 19 -41 42z" />
    <glyph glyph-name="paragraph" unicode="&#xb6;" 
d="M459 688h-62v-688h-40v688h-92v-688h-40v382c-115 5 -184 73 -184 170c0 100 74 170 192 170h226v-34z" />
    <glyph glyph-name="bullet" unicode="&#x2022;" horiz-adv-x="590" 
d="M150 372c0 80 65 144 145 144c79 0 144 -64 144 -144c0 -79 -65 -145 -145 -145s-144 65 -144 145z" />
    <glyph glyph-name="quotesinglbase" unicode="&#x201a;" horiz-adv-x="333" 
d="M121 -85c20 29 34 57 43 85h-4c-19 0 -35 18 -35 44c0 28 18 48 42 48c25 0 46 -23 46 -66c0 -36 -25 -79 -74 -128z" />
    <glyph glyph-name="quotedblbase" unicode="&#x201e;" horiz-adv-x="495" 
d="M121 -86c20 29 34 58 43 86h-5c-19 0 -34 17 -34 43c0 28 18 48 42 48c25 0 46 -23 46 -66c0 -36 -25 -79 -74 -128zM283 -86c20 29 34 58 43 86h-5c-19 0 -34 17 -34 43c0 28 18 48 42 48c25 0 46 -23 46 -66c0 -36 -25 -79 -74 -128z" />
    <glyph glyph-name="quotedblright" unicode="&#x201d;" horiz-adv-x="495" 
d="M121 374c20 29 34 58 43 86h-5c-19 0 -34 17 -34 43c0 28 18 48 42 48c25 0 46 -23 46 -66c0 -36 -25 -79 -74 -128zM283 374c20 29 34 58 43 86h-5c-19 0 -34 17 -34 43c0 28 18 48 42 48c25 0 46 -23 46 -66c0 -36 -25 -79 -74 -128z" />
    <glyph glyph-name="guillemotright" unicode="&#xbb;" horiz-adv-x="405" 
d="M24 41v69l124 98l-124 96v71l158 -119v-97zM225 41v69l123 98l-123 96v71l157 -119v-97z" />
    <glyph glyph-name="ellipsis" unicode="&#x2026;" horiz-adv-x="1000" 
d="M167 75c22 0 40 -18 40 -45s-18 -44 -40 -44s-41 17 -41 44s19 45 41 45zM500 75c22 0 40 -18 40 -45s-18 -44 -40 -44s-41 17 -41 44s19 45 41 45zM834 75c22 0 40 -18 40 -45s-18 -44 -40 -44s-41 17 -41 44s19 45 41 45z" />
    <glyph glyph-name="perthousand" unicode="&#x2030;" horiz-adv-x="1206" 
d="M179 214c-87 0 -154 65 -154 155s66 156 154 156c89 0 153 -66 153 -156s-65 -155 -153 -155zM179 272c52 0 91 43 91 98c0 56 -39 97 -91 97c-51 0 -90 -40 -90 -97c0 -56 39 -98 90 -98zM523 513h70l-274 -513h-70zM663 -14c-87 0 -153 65 -153 155s65 155 153 155
c89 0 154 -65 154 -155s-66 -155 -154 -155zM663 44c52 0 91 42 91 97c0 56 -39 98 -91 98c-51 0 -90 -41 -90 -98c0 -56 39 -97 90 -97zM1028 -14c-87 0 -154 65 -154 155s66 155 154 155c89 0 153 -65 153 -155s-65 -155 -153 -155zM1026 44c52 0 91 42 91 97
c0 56 -39 98 -91 98c-51 0 -90 -41 -90 -98c0 -56 39 -97 90 -97z" />
    <glyph glyph-name="questiondown" unicode="&#xbf;" horiz-adv-x="361" 
d="M201 462c-22 0 -41 18 -41 45s19 44 41 44s41 -17 41 -44s-19 -45 -41 -45zM236 406v-87c0 -45 -20 -65 -41 -86l-83 -83c-14 -14 -18 -25 -18 -43c0 -34 30 -60 78 -60c53 0 89 27 100 75l62 -23c-20 -75 -74 -113 -162 -113c-91 0 -146 50 -146 127c0 32 13 57 38 81
l85 83c14 14 20 34 20 59v70h67z" />
    <glyph glyph-name="grave" unicode="`" 
d="M266 482l-131 171h74l102 -171h-45z" />
    <glyph glyph-name="acute" unicode="&#xb4;" 
d="M234 482h-45l102 171h74z" />
    <glyph glyph-name="circumflex" unicode="&#x2c6;" 
d="M115 482l98 171h74l98 -171h-45l-90 129l-90 -129h-45z" />
    <glyph glyph-name="tilde" unicode="&#x2dc;" 
d="M391 611c-17 -59 -48 -89 -93 -89c-10 0 -21 2 -32 5l-47 15c-7 2 -15 4 -26 4c-19 0 -35 -12 -45 -35h-39c14 58 48 89 95 89c9 0 18 -1 26 -4l47 -15c11 -4 21 -6 27 -6c22 0 36 12 47 36h40z" />
    <glyph glyph-name="macron" unicode="&#xaf;" 
d="M125 531v57h250v-57h-250z" />
    <glyph glyph-name="breve" unicode="&#x2d8;" 
d="M116 631h39c4 -50 34 -71 95 -71s90 20 94 71h40c-6 -89 -47 -128 -134 -128c-86 0 -128 39 -134 128z" />
    <glyph glyph-name="dotaccent" unicode="&#x2d9;" 
d="M201 560c0 27 22 49 49 49s48 -22 48 -49s-21 -48 -48 -48s-49 22 -49 48z" />
    <glyph glyph-name="dieresis" unicode="&#xa8;" 
d="M128 560c0 24 20 44 44 44s43 -20 43 -44c0 -25 -19 -44 -43 -44s-44 19 -44 44zM285 560c0 24 19 44 43 44s44 -20 44 -44c0 -25 -20 -44 -44 -44s-43 19 -43 44z" />
    <glyph glyph-name="ring" unicode="&#x2da;" 
d="M133 591c0 65 51 117 117 117c65 0 118 -52 118 -117s-53 -118 -118 -118c-66 0 -117 53 -117 118zM177 590c0 -41 32 -73 73 -73c40 0 73 32 73 73s-33 74 -73 74c-41 0 -73 -33 -73 -74z" />
    <glyph glyph-name="cedilla" unicode="&#xb8;" 
d="M133 -204v37c47 -10 84 -17 115 -17c42 0 64 15 64 44c0 36 -22 51 -70 51c-7 0 -15 0 -23 -1v90h31v-54h10c69 0 106 -30 106 -84s-37 -86 -110 -86c-44 0 -83 9 -123 20z" />
    <glyph glyph-name="hungarumlaut" unicode="&#x2dd;" 
d="M164 482l73 171h65l-102 -171h-36zM279 482l82 171h65l-111 -171h-36z" />
    <glyph glyph-name="ogonek" unicode="&#x2db;" 
d="M282 0c-47 -41 -71 -80 -71 -115c0 -31 15 -42 53 -42h37v-51h-35c-69 0 -103 24 -103 79c0 39 29 83 89 129h30z" />
    <glyph glyph-name="caron" unicode="&#x2c7;" 
d="M115 653h45l90 -128l90 128h45l-98 -171h-74z" />
    <glyph glyph-name="emdash" unicode="&#x2014;" horiz-adv-x="1000" 
d="M1000 289v-41h-1000v41h1000z" />
    <glyph glyph-name="AE" unicode="&#xc6;" horiz-adv-x="859" 
d="M166 208h248v269h-91zM414 0v145h-283l-85 -145h-71l313 539h550v-62h-357v-158h217v-62h-217v-195h380v-62h-447z" />
    <glyph glyph-name="ordfeminine" unicode="&#xaa;" horiz-adv-x="296" 
d="M-6 204l140 250h27l141 -250h-46l-36 64h-145l-35 -64h-46zM94 301h107l-53 96z" />
    <glyph glyph-name="Lslash" unicode="&#x141;" horiz-adv-x="569" 
d="M150 0v245l-150 -85v64l150 85v230h67v-200l176 102v-64l-176 -102v-213h352v-62h-419z" />
    <glyph glyph-name="Oslash" unicode="&#xd8;" horiz-adv-x="634" 
d="M468 425l-253 -352c34 -17 66 -24 102 -24c121 0 210 92 210 219c0 61 -18 111 -59 157zM167 111l252 352c-34 17 -66 25 -102 25c-120 0 -210 -92 -210 -220c0 -62 19 -110 60 -157zM490 565h77l-60 -85c58 -51 90 -127 90 -212c0 -164 -119 -282 -280 -282
c-50 0 -94 11 -139 35l-34 -49h-77l60 85c-58 51 -89 126 -89 211c0 164 118 283 279 283c50 0 94 -11 139 -35z" />
    <glyph glyph-name="OE" unicode="&#x152;" horiz-adv-x="986" 
d="M317 49c121 0 210 92 210 219c0 128 -89 220 -210 220c-120 0 -210 -92 -210 -220s90 -219 210 -219zM522 0v81c-51 -64 -118 -95 -205 -95c-161 0 -279 118 -279 282s118 283 279 283c89 0 152 -30 205 -96v84h425v-62h-357v-158h216v-62h-216v-195h379v-62h-447z" />
    <glyph glyph-name="ordmasculine" unicode="&#xba;" horiz-adv-x="383" 
d="M191 196c-101 0 -168 59 -168 133s67 132 168 132c102 0 169 -57 169 -132s-67 -133 -169 -133zM191 233c77 0 125 42 125 96c0 53 -49 96 -125 96c-75 0 -124 -42 -124 -96s49 -96 124 -96z" />
    <glyph glyph-name="ae" unicode="&#xe6;" horiz-adv-x="810" 
d="M123 106l-61 -106h-70l240 417h540v-61h-328v-104h213v-60h-213v-132h344v-60h-409v106h-256zM157 161h222v195h-110z" />
    <glyph glyph-name="dotlessi" unicode="&#x131;" horiz-adv-x="211" 
d="M72 -1v419h66v-419h-66z" />
    <glyph glyph-name="lslash" unicode="&#x142;" horiz-adv-x="468" 
d="M88 0v167l-88 -50v61l88 50v189h65v-152l136 79v-62l-136 -79v-143h311v-60h-376z" />
    <glyph glyph-name="oslash" unicode="&#xf8;" horiz-adv-x="534" 
d="M394 311l-212 -244c27 -16 53 -22 85 -22c93 0 160 69 160 163c0 39 -10 73 -33 103zM140 106l213 243c-27 17 -54 23 -86 23c-91 0 -159 -69 -159 -164c0 -37 10 -71 32 -102zM31 -19l67 77c-38 44 -55 93 -55 150c0 127 95 220 224 220c46 0 85 -10 125 -34l34 41h77
l-67 -78c38 -44 55 -92 55 -149c0 -127 -95 -221 -224 -221c-46 0 -85 10 -125 34l-34 -40h-77z" />
    <glyph glyph-name="oe" unicode="&#x153;" horiz-adv-x="907" 
d="M290 48c116 0 189 71 189 160s-74 160 -189 160c-114 0 -188 -70 -188 -160s74 -160 188 -160zM476 417h392v-61h-327v-104h214v-60h-214v-132h344v-60h-409v54c-52 -47 -110 -67 -186 -67c-153 0 -255 98 -255 221c0 125 101 220 262 220c73 0 127 -18 179 -66v55z" />
    <glyph glyph-name="germandbls" unicode="&#xdf;" horiz-adv-x="990" 
d="M35 53l32 55c60 -40 132 -61 191 -61c78 0 124 36 124 81c0 49 -43 70 -130 72c-128 2 -199 20 -199 109c0 69 64 119 172 119c72 0 139 -20 202 -60l-33 -54c-54 36 -117 55 -170 55c-66 0 -105 -26 -105 -60c0 -40 43 -51 130 -51c134 0 201 -46 201 -134
c0 -74 -69 -137 -185 -137c-79 0 -162 23 -230 66zM530 53l32 55c60 -40 132 -61 191 -61c78 0 124 36 124 81c0 49 -43 70 -130 72c-128 2 -199 20 -199 109c0 69 64 119 172 119c72 0 139 -20 202 -60l-33 -54c-54 36 -117 55 -170 55c-66 0 -105 -26 -105 -60
c0 -40 43 -51 130 -51c134 0 201 -46 201 -134c0 -74 -69 -137 -185 -137c-79 0 -162 23 -230 66z" />
    <glyph glyph-name="Aacute" unicode="&#xc1;" horiz-adv-x="588" 
d="M0 0l264 539h56l267 -539h-73l-73 145h-298l-71 -145h-72zM174 208h237l-119 239zM278 605h-45l102 171h74z" />
    <glyph glyph-name="Acircumflex" unicode="&#xc2;" horiz-adv-x="588" 
d="M0 0l264 539h56l267 -539h-73l-73 145h-298l-71 -145h-72zM174 208h237l-119 239zM159 605l98 171h74l98 -171h-45l-90 129l-90 -129h-45z" />
    <glyph glyph-name="Adieresis" unicode="&#xc4;" horiz-adv-x="588" 
d="M0 0l264 539h56l267 -539h-73l-73 145h-298l-71 -145h-72zM174 208h237l-119 239zM172 683c0 24 20 44 44 44s43 -20 43 -44c0 -25 -19 -44 -43 -44s-44 19 -44 44zM329 683c0 24 19 44 43 44s44 -20 44 -44c0 -25 -20 -44 -44 -44s-43 19 -43 44z" />
    <glyph glyph-name="Agrave" unicode="&#xc0;" horiz-adv-x="588" 
d="M0 0l264 539h56l267 -539h-73l-73 145h-298l-71 -145h-72zM174 208h237l-119 239zM310 605l-131 171h74l102 -171h-45z" />
    <glyph glyph-name="Aring" unicode="&#xc5;" horiz-adv-x="588" 
d="M0 0l264 539h56l267 -539h-73l-73 145h-298l-71 -145h-72zM174 208h237l-119 239zM175 711c0 65 52 117 118 117c65 0 117 -52 117 -117s-52 -117 -117 -117c-66 0 -118 52 -118 117zM219 711c0 -41 33 -74 74 -74c40 0 73 33 73 74s-33 73 -73 73c-41 0 -74 -32 -74 -73
z" />
    <glyph glyph-name="Atilde" unicode="&#xc3;" horiz-adv-x="588" 
d="M0 0l264 539h56l267 -539h-73l-73 145h-298l-71 -145h-72zM174 208h237l-119 239zM435 734c-17 -59 -48 -89 -93 -89c-10 0 -21 2 -32 5l-47 15c-7 2 -15 4 -26 4c-19 0 -35 -12 -45 -35h-39c14 58 48 89 95 89c9 0 18 -1 26 -4l47 -15c11 -4 21 -6 27 -6
c22 0 36 12 47 36h40z" />
    <glyph glyph-name="Ccedilla" unicode="&#xc7;" horiz-adv-x="604" 
d="M511 172l54 -40c-50 -94 -139 -146 -248 -146c-161 0 -279 118 -279 282s118 283 279 283c100 0 185 -46 236 -126l-56 -40c-34 65 -102 103 -180 103c-120 0 -210 -92 -210 -220s90 -219 210 -219c84 0 151 42 194 123zM198 -204v37c47 -10 84 -17 115 -17
c42 0 64 15 64 44c0 36 -22 51 -70 51c-7 0 -15 0 -23 -1v90h31v-54h10c69 0 106 -30 106 -84s-37 -86 -110 -86c-44 0 -83 9 -123 20z" />
    <glyph glyph-name="Eacute" unicode="&#xc9;" horiz-adv-x="546" 
d="M81 0v539h424v-62h-357v-158h216v-62h-216v-195h379v-62h-446zM285 605h-45l102 171h74z" />
    <glyph glyph-name="Ecircumflex" unicode="&#xca;" horiz-adv-x="546" 
d="M81 0v539h424v-62h-357v-158h216v-62h-216v-195h379v-62h-446zM166 605l98 171h74l98 -171h-45l-90 129l-90 -129h-45z" />
    <glyph glyph-name="Edieresis" unicode="&#xcb;" horiz-adv-x="546" 
d="M81 0v539h424v-62h-357v-158h216v-62h-216v-195h379v-62h-446zM179 683c0 24 20 44 44 44s43 -20 43 -44c0 -25 -19 -44 -43 -44s-44 19 -44 44zM336 683c0 24 19 44 43 44s44 -20 44 -44c0 -25 -20 -44 -44 -44s-43 19 -43 44z" />
    <glyph glyph-name="Egrave" unicode="&#xc8;" horiz-adv-x="546" 
d="M81 0v539h424v-62h-357v-158h216v-62h-216v-195h379v-62h-446zM317 605l-131 171h74l102 -171h-45z" />
    <glyph glyph-name="Iacute" unicode="&#xcd;" horiz-adv-x="231" 
d="M82 -2v544h68v-544h-68zM100 605h-45l102 171h74z" />
    <glyph glyph-name="Icircumflex" unicode="&#xce;" horiz-adv-x="231" 
d="M82 -2v544h68v-544h-68zM-19 605l98 171h74l98 -171h-45l-90 129l-90 -129h-45z" />
    <glyph glyph-name="Idieresis" unicode="&#xcf;" horiz-adv-x="231" 
d="M82 -2v544h68v-544h-68zM-6 683c0 24 20 44 44 44s43 -20 43 -44c0 -25 -19 -44 -43 -44s-44 19 -44 44zM151 683c0 24 19 44 43 44s44 -20 44 -44c0 -25 -20 -44 -44 -44s-43 19 -43 44z" />
    <glyph glyph-name="Igrave" unicode="&#xcc;" horiz-adv-x="231" 
d="M82 -2v544h68v-544h-68zM132 605l-131 171h74l102 -171h-45z" />
    <glyph glyph-name="Ntilde" unicode="&#xd1;" horiz-adv-x="613" 
d="M81 0v539h35l350 -403v403h67v-539h-34l-351 403v-403h-67zM448 734c-17 -59 -48 -89 -93 -89c-10 0 -21 2 -32 5l-47 15c-7 2 -15 4 -26 4c-19 0 -35 -12 -45 -35h-39c14 58 48 89 95 89c9 0 18 -1 26 -4l47 -15c11 -4 21 -6 27 -6c22 0 36 12 47 36h40z" />
    <glyph glyph-name="Oacute" unicode="&#xd3;" horiz-adv-x="634" 
d="M317 -14c-161 0 -279 118 -279 282s118 283 279 283s280 -119 280 -283s-119 -282 -280 -282zM317 49c121 0 210 92 210 219c0 128 -89 220 -210 220c-120 0 -210 -92 -210 -220s90 -219 210 -219zM301 605h-45l102 171h74z" />
    <glyph glyph-name="Ocircumflex" unicode="&#xd4;" horiz-adv-x="634" 
d="M317 -14c-161 0 -279 118 -279 282s118 283 279 283s280 -119 280 -283s-119 -282 -280 -282zM317 49c121 0 210 92 210 219c0 128 -89 220 -210 220c-120 0 -210 -92 -210 -220s90 -219 210 -219zM182 605l98 171h74l98 -171h-45l-90 129l-90 -129h-45z" />
    <glyph glyph-name="Odieresis" unicode="&#xd6;" horiz-adv-x="634" 
d="M317 -14c-161 0 -279 118 -279 282s118 283 279 283s280 -119 280 -283s-119 -282 -280 -282zM317 49c121 0 210 92 210 219c0 128 -89 220 -210 220c-120 0 -210 -92 -210 -220s90 -219 210 -219zM195 683c0 24 20 44 44 44s43 -20 43 -44c0 -25 -19 -44 -43 -44
s-44 19 -44 44zM352 683c0 24 19 44 43 44s44 -20 44 -44c0 -25 -20 -44 -44 -44s-43 19 -43 44z" />
    <glyph glyph-name="Ograve" unicode="&#xd2;" horiz-adv-x="634" 
d="M317 -14c-161 0 -279 118 -279 282s118 283 279 283s280 -119 280 -283s-119 -282 -280 -282zM317 49c121 0 210 92 210 219c0 128 -89 220 -210 220c-120 0 -210 -92 -210 -220s90 -219 210 -219zM333 605l-131 171h74l102 -171h-45z" />
    <glyph glyph-name="Otilde" unicode="&#xd5;" horiz-adv-x="634" 
d="M317 -14c-161 0 -279 118 -279 282s118 283 279 283s280 -119 280 -283s-119 -282 -280 -282zM317 49c121 0 210 92 210 219c0 128 -89 220 -210 220c-120 0 -210 -92 -210 -220s90 -219 210 -219zM458 734c-17 -59 -48 -89 -93 -89c-10 0 -21 2 -32 5l-47 15
c-7 2 -15 4 -26 4c-19 0 -35 -12 -45 -35h-39c14 58 48 89 95 89c9 0 18 -1 26 -4l47 -15c11 -4 21 -6 27 -6c22 0 36 12 47 36h40z" />
    <glyph glyph-name="Scaron" unicode="&#x160;" horiz-adv-x="597" 
d="M30 81l39 58c77 -60 162 -91 241 -91c103 0 168 49 168 113c0 49 -42 89 -126 96c-92 7 -165 8 -222 34c-50 24 -77 63 -77 111c0 83 81 149 209 149c91 0 180 -31 258 -88l-39 -56c-67 54 -141 81 -218 81c-85 0 -140 -38 -140 -83c0 -20 9 -35 26 -48
c46 -35 123 -27 222 -38c113 -13 178 -78 178 -160c0 -93 -86 -173 -238 -173c-106 0 -197 30 -281 95zM164 776h45l90 -128l90 128h45l-98 -171h-74z" />
    <glyph glyph-name="Uacute" unicode="&#xda;" horiz-adv-x="579" 
d="M134 539v-349c0 -112 32 -141 155 -141s155 29 155 141v349h67v-367c0 -132 -63 -186 -222 -186s-222 54 -222 186v367h67zM274 605h-45l102 171h74z" />
    <glyph glyph-name="Ucircumflex" unicode="&#xdb;" horiz-adv-x="579" 
d="M134 539v-349c0 -112 32 -141 155 -141s155 29 155 141v349h67v-367c0 -132 -63 -186 -222 -186s-222 54 -222 186v367h67zM155 605l98 171h74l98 -171h-45l-90 129l-90 -129h-45z" />
    <glyph glyph-name="Udieresis" unicode="&#xdc;" horiz-adv-x="579" 
d="M134 539v-349c0 -112 32 -141 155 -141s155 29 155 141v349h67v-367c0 -132 -63 -186 -222 -186s-222 54 -222 186v367h67zM168 683c0 24 20 44 44 44s43 -20 43 -44c0 -25 -19 -44 -43 -44s-44 19 -44 44zM325 683c0 24 19 44 43 44s44 -20 44 -44
c0 -25 -20 -44 -44 -44s-43 19 -43 44z" />
    <glyph glyph-name="Ugrave" unicode="&#xd9;" horiz-adv-x="579" 
d="M134 539v-349c0 -112 32 -141 155 -141s155 29 155 141v349h67v-367c0 -132 -63 -186 -222 -186s-222 54 -222 186v367h67zM306 605l-131 171h74l102 -171h-45z" />
    <glyph glyph-name="Ydieresis" unicode="&#x178;" horiz-adv-x="454" 
d="M193 0v270l-243 269h84l193 -213l192 213h85l-244 -270v-269h-67zM105 683c0 24 20 44 44 44s43 -20 43 -44c0 -25 -19 -44 -43 -44s-44 19 -44 44zM262 683c0 24 19 44 43 44s44 -20 44 -44c0 -25 -20 -44 -44 -44s-43 19 -43 44z" />
    <glyph glyph-name="Zcaron" unicode="&#x17d;" horiz-adv-x="509" 
d="M-2 0l364 477h-333v62h455l-356 -477h354v-62h-484zM120 776h45l90 -128l90 128h45l-98 -171h-74z" />
    <glyph glyph-name="aacute" unicode="&#xe1;" horiz-adv-x="449" 
d="M-9 0l212 417h41l214 -417h-70l-54 106h-220l-54 -106h-69zM142 161h163l-81 160zM209 482h-45l102 171h74z" />
    <glyph glyph-name="acircumflex" unicode="&#xe2;" horiz-adv-x="449" 
d="M-9 0l212 417h41l214 -417h-70l-54 106h-220l-54 -106h-69zM142 161h163l-81 160zM90 482l98 171h74l98 -171h-45l-90 129l-90 -129h-45z" />
    <glyph glyph-name="adieresis" unicode="&#xe4;" horiz-adv-x="449" 
d="M-9 0l212 417h41l214 -417h-70l-54 106h-220l-54 -106h-69zM142 161h163l-81 160zM103 560c0 24 20 44 44 44s43 -20 43 -44c0 -25 -19 -44 -43 -44s-44 19 -44 44zM260 560c0 24 19 44 43 44s44 -20 44 -44c0 -25 -20 -44 -44 -44s-43 19 -43 44z" />
    <glyph glyph-name="agrave" unicode="&#xe0;" horiz-adv-x="449" 
d="M-9 0l212 417h41l214 -417h-70l-54 106h-220l-54 -106h-69zM142 161h163l-81 160zM241 482l-131 171h74l102 -171h-45z" />
    <glyph glyph-name="aring" unicode="&#xe5;" horiz-adv-x="449" 
d="M-9 0l212 417h41l214 -417h-70l-54 106h-220l-54 -106h-69zM142 161h163l-81 160zM108 591c0 65 51 117 117 117c65 0 118 -52 118 -117s-53 -118 -118 -118c-66 0 -117 53 -117 118zM152 590c0 -41 32 -73 73 -73c40 0 73 32 73 73s-33 74 -73 74c-41 0 -73 -33 -73 -74
z" />
    <glyph glyph-name="atilde" unicode="&#xe3;" horiz-adv-x="449" 
d="M-9 0l212 417h41l214 -417h-70l-54 106h-220l-54 -106h-69zM142 161h163l-81 160zM366 611c-17 -59 -48 -89 -93 -89c-10 0 -21 2 -32 5l-47 15c-7 2 -15 4 -26 4c-19 0 -35 -12 -45 -35h-39c14 58 48 89 95 89c9 0 18 -1 26 -4l47 -15c11 -4 21 -6 27 -6
c22 0 36 12 47 36h40z" />
    <glyph glyph-name="ccedilla" unicode="&#xe7;" horiz-adv-x="551" 
d="M512 102c-47 -74 -126 -115 -225 -115c-148 0 -252 94 -252 220s104 221 252 221c92 0 169 -36 214 -98l-52 -36c-34 47 -92 74 -162 74c-108 0 -185 -69 -185 -160s78 -160 185 -160c75 0 130 29 173 90zM159 -204v37c47 -10 84 -17 115 -17c42 0 64 15 64 44
c0 36 -22 51 -70 51c-7 0 -15 0 -23 -1v90h31v-54h10c69 0 106 -30 106 -84s-37 -86 -110 -86c-44 0 -83 9 -123 20z" />
    <glyph glyph-name="eacute" unicode="&#xe9;" horiz-adv-x="502" 
d="M71 0v417h391v-61h-326v-104h214v-60h-214v-132h344v-60h-409zM254 482h-45l102 171h74z" />
    <glyph glyph-name="ecircumflex" unicode="&#xea;" horiz-adv-x="502" 
d="M71 0v417h391v-61h-326v-104h214v-60h-214v-132h344v-60h-409zM135 482l98 171h74l98 -171h-45l-90 129l-90 -129h-45z" />
    <glyph glyph-name="edieresis" unicode="&#xeb;" horiz-adv-x="502" 
d="M71 0v417h391v-61h-326v-104h214v-60h-214v-132h344v-60h-409zM148 560c0 24 20 44 44 44s43 -20 43 -44c0 -25 -19 -44 -43 -44s-44 19 -44 44zM305 560c0 24 19 44 43 44s44 -20 44 -44c0 -25 -20 -44 -44 -44s-43 19 -43 44z" />
    <glyph glyph-name="egrave" unicode="&#xe8;" horiz-adv-x="502" 
d="M71 0v417h391v-61h-326v-104h214v-60h-214v-132h344v-60h-409zM286 482l-131 171h74l102 -171h-45z" />
    <glyph glyph-name="iacute" unicode="&#xed;" horiz-adv-x="211" 
d="M72 -1v419h66v-419h-66zM90 482h-45l102 171h74z" />
    <glyph glyph-name="icircumflex" unicode="&#xee;" horiz-adv-x="211" 
d="M72 -1v419h66v-419h-66zM-29 482l98 171h74l98 -171h-45l-90 129l-90 -129h-45z" />
    <glyph glyph-name="idieresis" unicode="&#xef;" horiz-adv-x="211" 
d="M72 -1v419h66v-419h-66zM-16 560c0 24 20 44 44 44s43 -20 43 -44c0 -25 -19 -44 -43 -44s-44 19 -44 44zM141 560c0 24 19 44 43 44s44 -20 44 -44c0 -25 -20 -44 -44 -44s-43 19 -43 44z" />
    <glyph glyph-name="igrave" unicode="&#xec;" horiz-adv-x="211" 
d="M72 -1v419h66v-419h-66zM122 482l-131 171h74l102 -171h-45z" />
    <glyph glyph-name="ntilde" unicode="&#xf1;" horiz-adv-x="507" 
d="M72 0v417h34l265 -293v293h64v-417h-34l-265 292v-292h-64zM395 611c-17 -59 -48 -89 -93 -89c-10 0 -21 2 -32 5l-47 15c-7 2 -15 4 -26 4c-19 0 -35 -12 -45 -35h-39c14 58 48 89 95 89c9 0 18 -1 26 -4l47 -15c11 -4 21 -6 27 -6c22 0 36 12 47 36h40z" />
    <glyph glyph-name="oacute" unicode="&#xf3;" horiz-adv-x="581" 
d="M290 -13c-153 0 -255 98 -255 221c0 124 102 220 255 220c154 0 256 -95 256 -220c0 -124 -102 -221 -256 -221zM290 48c116 0 189 71 189 160s-74 160 -189 160c-114 0 -188 -70 -188 -160s74 -160 188 -160zM275 482h-45l102 171h74z" />
    <glyph glyph-name="ocircumflex" unicode="&#xf4;" horiz-adv-x="581" 
d="M290 -13c-153 0 -255 98 -255 221c0 124 102 220 255 220c154 0 256 -95 256 -220c0 -124 -102 -221 -256 -221zM290 48c116 0 189 71 189 160s-74 160 -189 160c-114 0 -188 -70 -188 -160s74 -160 188 -160zM156 482l98 171h74l98 -171h-45l-90 129l-90 -129h-45z" />
    <glyph glyph-name="odieresis" unicode="&#xf6;" horiz-adv-x="581" 
d="M290 -13c-153 0 -255 98 -255 221c0 124 102 220 255 220c154 0 256 -95 256 -220c0 -124 -102 -221 -256 -221zM290 48c116 0 189 71 189 160s-74 160 -189 160c-114 0 -188 -70 -188 -160s74 -160 188 -160zM169 560c0 24 20 44 44 44s43 -20 43 -44
c0 -25 -19 -44 -43 -44s-44 19 -44 44zM326 560c0 24 19 44 43 44s44 -20 44 -44c0 -25 -20 -44 -44 -44s-43 19 -43 44z" />
    <glyph glyph-name="ograve" unicode="&#xf2;" horiz-adv-x="581" 
d="M290 -13c-153 0 -255 98 -255 221c0 124 102 220 255 220c154 0 256 -95 256 -220c0 -124 -102 -221 -256 -221zM290 48c116 0 189 71 189 160s-74 160 -189 160c-114 0 -188 -70 -188 -160s74 -160 188 -160zM307 482l-131 171h74l102 -171h-45z" />
    <glyph glyph-name="otilde" unicode="&#xf5;" horiz-adv-x="581" 
d="M290 -13c-153 0 -255 98 -255 221c0 124 102 220 255 220c154 0 256 -95 256 -220c0 -124 -102 -221 -256 -221zM290 48c116 0 189 71 189 160s-74 160 -189 160c-114 0 -188 -70 -188 -160s74 -160 188 -160zM432 611c-17 -59 -48 -89 -93 -89c-10 0 -21 2 -32 5l-47 15
c-7 2 -15 4 -26 4c-19 0 -35 -12 -45 -35h-39c14 58 48 89 95 89c9 0 18 -1 26 -4l47 -15c11 -4 21 -6 27 -6c22 0 36 12 47 36h40z" />
    <glyph glyph-name="scaron" unicode="&#x161;" horiz-adv-x="495" 
d="M35 53l32 55c60 -40 132 -61 191 -61c78 0 124 36 124 81c0 49 -43 70 -130 72c-128 2 -199 20 -199 109c0 69 64 119 172 119c72 0 139 -20 202 -60l-33 -54c-54 36 -117 55 -170 55c-66 0 -105 -26 -105 -60c0 -40 43 -51 130 -51c134 0 201 -46 201 -134
c0 -74 -69 -137 -185 -137c-79 0 -162 23 -230 66zM113 653h45l90 -128l90 128h45l-98 -171h-74z" />
    <glyph glyph-name="uacute" unicode="&#xfa;" horiz-adv-x="556" 
d="M72 416h65v-267c0 -82 31 -102 141 -102s141 20 141 102v267h65v-284c0 -103 -62 -145 -207 -145c-147 0 -205 42 -205 145v284zM262 482h-45l102 171h74z" />
    <glyph glyph-name="ucircumflex" unicode="&#xfb;" horiz-adv-x="556" 
d="M72 416h65v-267c0 -82 31 -102 141 -102s141 20 141 102v267h65v-284c0 -103 -62 -145 -207 -145c-147 0 -205 42 -205 145v284zM143 482l98 171h74l98 -171h-45l-90 129l-90 -129h-45z" />
    <glyph glyph-name="udieresis" unicode="&#xfc;" horiz-adv-x="556" 
d="M72 416h65v-267c0 -82 31 -102 141 -102s141 20 141 102v267h65v-284c0 -103 -62 -145 -207 -145c-147 0 -205 42 -205 145v284zM156 560c0 24 20 44 44 44s43 -20 43 -44c0 -25 -19 -44 -43 -44s-44 19 -44 44zM313 560c0 24 19 44 43 44s44 -20 44 -44
c0 -25 -20 -44 -44 -44s-43 19 -43 44z" />
    <glyph glyph-name="ugrave" unicode="&#xf9;" horiz-adv-x="556" 
d="M72 416h65v-267c0 -82 31 -102 141 -102s141 20 141 102v267h65v-284c0 -103 -62 -145 -207 -145c-147 0 -205 42 -205 145v284zM294 482l-131 171h74l102 -171h-45z" />
    <glyph glyph-name="ydieresis" unicode="&#xff;" horiz-adv-x="447" 
d="M191 0v213l-190 204h84l138 -148l136 148h87l-191 -203v-214h-64zM102 560c0 24 20 44 44 44s43 -20 43 -44c0 -25 -19 -44 -43 -44s-44 19 -44 44zM259 560c0 24 19 44 43 44s44 -20 44 -44c0 -25 -20 -44 -44 -44s-43 19 -43 44z" />
    <glyph glyph-name="zcaron" unicode="&#x17e;" horiz-adv-x="437" 
d="M17 0l270 356h-246v61h366l-272 -357h270v-60h-388zM84 653h45l90 -128l90 128h45l-98 -171h-74z" />
    <glyph glyph-name="trademark" unicode="&#x2122;" horiz-adv-x="833" 
d="M339 710v-28h-84v-231h-40v231h-86v28h210zM458 710l81 -206l76 206h57v-259h-35v228l-86 -228h-24l-91 228v-228h-35v259h57z" />
    <glyph glyph-name="copyright" unicode="&#xa9;" horiz-adv-x="833" 
d="M416 711c97 0 187 -37 255 -105c67 -67 103 -157 103 -253c0 -98 -36 -185 -103 -251c-70 -69 -161 -107 -255 -107s-183 37 -252 106c-68 68 -105 157 -105 252s38 185 107 255c66 67 153 103 250 103zM735 353c0 86 -33 166 -92 225c-61 61 -140 94 -227 94
c-86 0 -164 -32 -223 -92c-62 -63 -95 -143 -95 -227s33 -163 94 -224s140 -94 224 -94s165 33 228 95c59 58 91 136 91 223zM524 447c-12 52 -51 82 -106 82c-78 0 -126 -63 -126 -177c0 -110 49 -173 126 -173c58 0 101 35 112 92h56c-7 -81 -77 -139 -171 -139
c-113 0 -186 82 -186 223c0 135 79 219 191 219c88 0 153 -51 161 -127h-57z" />
    <glyph glyph-name="logicalnot" unicode="&#xac;" horiz-adv-x="833" 
d="M709 419v-245h-47v196h-538v49h585z" />
    <glyph glyph-name="registered" unicode="&#xae;" horiz-adv-x="833" 
d="M416 711c98 0 187 -36 255 -105c67 -67 103 -157 103 -253c0 -98 -36 -185 -103 -251c-70 -69 -161 -107 -255 -107c-95 0 -184 37 -252 106c-68 68 -105 157 -105 252c0 94 38 185 107 255c66 67 153 103 250 103zM735 352c0 87 -32 167 -91 226c-61 61 -141 94 -228 94
c-86 0 -163 -33 -222 -92c-62 -63 -96 -143 -96 -227s33 -163 94 -224s140 -94 224 -94s165 33 228 95c60 58 91 135 91 222zM427 565c114 0 170 -35 170 -114c0 -57 -37 -100 -97 -108l92 -190h-71l-87 181h-96v-181h-62v412h151zM415 523h-77v-148h77c81 0 118 16 118 72
c0 55 -37 76 -118 76z" />
    <glyph glyph-name="minus" unicode="&#x2212;" horiz-adv-x="833" 
d="M709 322v-48h-585v48h585z" />
    <glyph glyph-name="Eth" unicode="&#xd0;" horiz-adv-x="669" 
d="M348 539c175 0 283 -115 283 -271c0 -155 -103 -268 -283 -268h-231v267h-116v56h116v216h231zM348 477h-164v-154h189v-56h-189v-205h164c139 0 214 86 214 207s-80 208 -214 208z" />
    <glyph glyph-name="Thorn" unicode="&#xde;" horiz-adv-x="586" 
d="M78 539h67v-105h242c106 0 169 -56 169 -150c0 -85 -58 -153 -160 -153h-251v-131h-67v539zM145 372v-179h238c68 0 103 32 103 89c0 56 -35 90 -100 90h-241z" />
    <glyph glyph-name="Yacute" unicode="&#xdd;" horiz-adv-x="454" 
d="M193 0v270l-243 269h84l193 -213l192 213h85l-244 -270v-269h-67zM211 605h-45l102 171h74z" />
    <glyph glyph-name="brokenbar" unicode="&#xa6;" 
d="M277 699v-370h-53v370h53zM277 199v-370h-53v370h53z" />
    <glyph glyph-name="degree" unicode="&#xb0;" horiz-adv-x="329" 
d="M165 709c75 0 135 -61 135 -136c0 -74 -60 -136 -136 -136s-135 60 -135 136s61 136 136 136zM266 573c0 56 -45 102 -101 102s-102 -46 -102 -102c0 -57 46 -101 102 -101c57 0 101 45 101 101z" />
    <glyph glyph-name="divide" unicode="&#xf7;" horiz-adv-x="833" 
d="M417 523c29 0 52 -24 52 -53c0 -28 -22 -52 -52 -52s-52 23 -52 52s24 53 52 53zM709 322v-48h-585v48h585zM417 178c29 0 52 -23 52 -52c0 -28 -22 -52 -52 -52c-29 0 -52 23 -52 52s24 52 52 52z" />
    <glyph glyph-name="mu" unicode="&#x3bc;" horiz-adv-x="542" 
d="M168 520l-61 -289c-5 -23 -8 -45 -8 -68c0 -76 39 -119 110 -119c80 0 141 69 170 204l59 272h68l-80 -376c-7 -31 -11 -52 -11 -65c0 -21 11 -32 33 -32c2 0 8 0 18 1l-10 -54c-15 -4 -30 -5 -42 -5c-46 0 -67 23 -67 71v7c-27 -50 -80 -79 -146 -79
c-60 0 -106 27 -131 76l-56 -272h-68l154 728h68z" />
    <glyph glyph-name="multiply" unicode="&#xd7;" horiz-adv-x="833" 
d="M418 332l235 235l34 -34l-235 -235l235 -235l-34 -34l-235 235l-235 -235l-34 34l235 235l-235 235l34 34z" />
    <glyph glyph-name="onehalf" unicode="&#xbd;" horiz-adv-x="1007" 
d="M188 222v290h43v-290h-43zM686 524h67l-432 -538h-68zM661 0c-1 20 -2 32 -2 36c0 57 21 88 96 111c94 30 144 38 144 67c0 24 -30 45 -80 45c-43 0 -85 -16 -131 -45l-25 29c49 34 98 51 152 51c79 0 128 -37 128 -81c0 -49 -53 -62 -133 -86c-73 -22 -108 -33 -108 -78
c0 -4 1 -9 2 -14h245v-35h-288z" />
    <glyph glyph-name="onequarter" unicode="&#xbc;" horiz-adv-x="1007" 
d="M188 222v290h43v-290h-43zM686 524h67l-432 -538h-68zM881 0v69h-259v36l259 182h42v-182h54v-36h-54v-69h-42zM687 105h194v136z" />
    <glyph glyph-name="onesuperior" unicode="&#xb9;" horiz-adv-x="440" 
d="M197 202v311h45v-311h-45z" />
    <glyph glyph-name="plusminus" unicode="&#xb1;" horiz-adv-x="833" 
d="M441 571v-170h268v-48h-268v-170h-48v170h-269v48h269v170h48zM709 73v-48h-585v48h585z" />
    <glyph glyph-name="threequarters" unicode="&#xbe;" horiz-adv-x="1007" 
d="M62 311c51 -41 95 -60 157 -60c76 0 122 31 122 63c0 34 -35 51 -107 51h-15v34h22c51 0 76 11 76 38c0 26 -30 46 -83 46c-45 0 -88 -14 -131 -42l-26 31c46 30 101 46 159 46c78 0 124 -33 124 -81c0 -22 -10 -39 -29 -53c36 -14 55 -37 55 -69c0 -51 -63 -99 -165 -99
c-74 0 -132 20 -185 67zM686 524h67l-432 -538h-68zM881 0v69h-259v36l259 182h42v-182h54v-36h-54v-69h-42zM687 105h194v136z" />
    <glyph glyph-name="threesuperior" unicode="&#xb3;" horiz-adv-x="440" 
d="M65 298c54 -45 100 -65 164 -65c81 0 129 33 129 67c0 37 -38 55 -113 55h-15v37c8 -1 16 -1 22 -1c54 0 80 12 80 42c0 27 -32 48 -86 48c-48 0 -93 -15 -138 -45l-27 33c48 33 105 50 167 50c81 0 130 -35 130 -86c0 -24 -11 -43 -31 -57c37 -15 57 -41 57 -75
c0 -54 -66 -105 -172 -105c-78 0 -139 21 -194 71z" />
    <glyph glyph-name="twosuperior" unicode="&#xb2;" horiz-adv-x="440" 
d="M77 204c0 22 -1 34 -1 38c0 62 21 95 100 120c99 32 151 40 151 71c0 26 -32 48 -84 48c-45 0 -89 -17 -137 -48l-27 31c52 36 103 55 160 55c83 0 134 -40 134 -86c0 -54 -56 -67 -139 -93c-77 -23 -113 -35 -113 -83c0 -5 0 -10 1 -16h258v-37h-303z" />
    <glyph glyph-name="yacute" unicode="&#xfd;" horiz-adv-x="447" 
d="M191 0v213l-190 204h84l138 -148l136 148h87l-191 -203v-214h-64zM208 482h-45l102 171h74z" />
  </font>
</defs>
</svg>
