<svg version="1.1" id="Calque_1" xmlns="http://www.w3.org/2000/svg" xmlns:xlink="http://www.w3.org/1999/xlink" x="0px" y="0px"
	 width="127.655px" height="20.541px" viewBox="0 0 127.655 20.541" enable-background="new 0 0 127.655 20.541"
	 xml:space="preserve">
<g>
	<g>
		<g>
			<path fill="#55565A" d="M20.503,8.386h-1.715c-0.324,0-0.588,0.265-0.588,0.588v3.359v0.687v6.816
				c0,0.324,0.265,0.589,0.588,0.589h1.715c0.324,0,0.59-0.266,0.59-0.589v-6.816v-0.687V8.975
				C21.093,8.651,20.827,8.386,20.503,8.386z"/>
			<path fill="#77777A" d="M99.787,9.905c0.165-0.279,0.299-0.489,0.299-1.005c0-0.273-0.265-0.498-0.589-0.498h-7.292
				c-0.323,0-0.589,0.266-0.589,0.589v1.382c0,0.324,0.266,0.589,0.589,0.589h3.181c0.324,0,0.455,0.229,0.292,0.508l-4.237,7.223
				c-0.217,0.336-0.248,0.44-0.248,0.685c0,0.11-0.002,0.161-0.002,0.422c0.001,0.324,0.266,0.589,0.589,0.589h7.718
				c0.325,0,0.589-0.266,0.589-0.589v-1.382c0-0.324-0.265-0.588-0.589-0.588h-3.784c-0.325,0-0.455-0.229-0.291-0.507L99.787,9.905
				z"/>
			<path fill="#77777A" d="M89.944,8.386h-1.714c-0.325,0-0.589,0.265-0.589,0.588v3.359v0.687v6.816
				c0,0.324,0.265,0.589,0.589,0.589h1.714c0.324,0,0.589-0.266,0.589-0.589v-6.816v-0.687V8.975
				C90.533,8.651,90.268,8.386,89.944,8.386z"/>
			<path fill="#55565A" d="M61.129,8.402h-1.482c-0.325,0-0.855,0-1.179,0h-1.715c-0.324,0-0.854,0-1.178,0h-1.673
				c-0.324,0-0.588,0.266-0.588,0.589v1.382c0,0.324,0.265,0.589,0.588,0.589h1.673c0.324,0,0.589,0.265,0.589,0.589v8.284
				c0,0.324,0.265,0.589,0.588,0.589h1.715c0.324,0,0.589-0.266,0.589-0.589v-8.284c0-0.325,0.265-0.589,0.589-0.589h1.482
				c0.324,0,0.588-0.266,0.588-0.589V8.992C61.717,8.668,61.453,8.402,61.129,8.402z"/>
			<path fill="#55565A" d="M69.605,17.847h-3.624c-0.324,0-0.589-0.266-0.589-0.589v-1.133c0-0.325,0.266-0.589,0.589-0.589h3.22
				c0.324,0,0.588-0.266,0.588-0.589v-1.382c0-0.324-0.265-0.589-0.588-0.589h-3.22c-0.324,0-0.589-0.264-0.589-0.588v-0.834
				c0-0.325,0.266-0.589,0.589-0.589h3.528c0.324,0,0.588-0.266,0.588-0.589V8.992c0-0.324-0.265-0.589-0.588-0.589h-3.528
				c-0.324,0-0.855,0-1.179,0h-1.715c-0.324,0-0.588,0.266-0.588,0.589v1.382c0,0.324,0,0.854,0,1.179v0.834
				c0,0.324,0,0.854,0,1.177v1.382c0,0.324,0,0.854,0,1.179v1.133c0,0.324,0,0.854,0,1.178v1.382c0,0.324,0.265,0.588,0.588,0.588
				h1.715c0.324,0,0.855,0,1.179,0h3.624c0.324,0,0.59-0.265,0.59-0.588v-1.382C70.195,18.112,69.929,17.847,69.605,17.847z"/>
			<path fill="#77777A" d="M86.13,17.847h-3.624c-0.324,0-0.589-0.266-0.589-0.589v-1.133c0-0.325,0.266-0.589,0.589-0.589h3.22
				c0.324,0,0.589-0.266,0.589-0.589v-1.382c0-0.324-0.265-0.589-0.589-0.589h-3.22c-0.324,0-0.589-0.264-0.589-0.588v-0.834
				c0-0.325,0.266-0.589,0.589-0.589h3.528c0.324,0,0.589-0.266,0.589-0.589V8.992c0-0.324-0.266-0.589-0.589-0.589h-3.528
				c-0.324,0-0.854,0-1.178,0h-1.714c-0.325,0-0.59,0.266-0.59,0.589v1.382c0,0.324,0,0.854,0,1.179v0.834c0,0.324,0,0.854,0,1.177
				v1.382c0,0.324,0,0.854,0,1.179v1.133c0,0.324,0,0.854,0,1.178v1.382c0,0.324,0.265,0.588,0.59,0.588h1.714
				c0.324,0,0.854,0,1.178,0h3.624c0.325,0,0.589-0.265,0.589-0.588v-1.382C86.719,18.112,86.455,17.847,86.13,17.847z"/>
			<path fill="#77777A" d="M108.166,17.847h-3.625c-0.324,0-0.589-0.266-0.589-0.589v-1.133c0-0.325,0.266-0.589,0.589-0.589h3.22
				c0.324,0,0.589-0.266,0.589-0.589v-1.382c0-0.324-0.266-0.589-0.589-0.589h-3.22c-0.324,0-0.589-0.264-0.589-0.588v-0.834
				c0-0.325,0.266-0.589,0.589-0.589h3.528c0.325,0,0.59-0.266,0.59-0.589V8.992c0-0.324-0.265-0.589-0.59-0.589h-3.528
				c-0.324,0-0.854,0-1.178,0h-1.714c-0.324,0-0.589,0.266-0.589,0.589v1.382c0,0.324,0,0.854,0,1.179v0.834
				c0,0.324,0,0.854,0,1.177v1.382c0,0.324,0,0.854,0,1.179v1.133c0,0.324,0,0.854,0,1.178v1.382c0,0.324,0.266,0.588,0.589,0.588
				h1.714c0.324,0,0.854,0,1.178,0h3.625c0.325,0,0.588-0.265,0.588-0.588v-1.382C108.754,18.112,108.491,17.847,108.166,17.847z"/>
			<path fill="#55565A" d="M52.008,8.37h-1.714c-0.324,0-0.589,0.265-0.589,0.589v5.683c0,0.324-0.13,0.358-0.288,0.075l-3.28-5.834
				c-0.16-0.282-0.554-0.513-0.878-0.513h-1.792c-0.324,0-0.59,0.265-0.59,0.589v10.878c0,0.324,0.267,0.589,0.59,0.589h1.715
				c0.324,0,0.588-0.266,0.588-0.589v-5.872c0-0.324,0.13-0.358,0.289-0.075l3.386,6.023c0.159,0.282,0.554,0.513,0.879,0.513h1.685
				c0.325,0,0.589-0.266,0.589-0.589V8.958C52.598,8.635,52.333,8.37,52.008,8.37z"/>
			<path fill="#55565A" d="M28.544,14.776c-0.167-0.278-0.167-0.731,0-1.008l2.95-4.878c0.167-0.277,0.04-0.504-0.284-0.504h-1.935
				c-0.324,0-0.727,0.227-0.894,0.504l-1.394,2.303c-0.167,0.278-0.442,0.278-0.609,0L24.984,8.89
				c-0.167-0.277-0.57-0.504-0.894-0.504h-1.935c-0.324,0-0.452,0.227-0.284,0.504l2.95,4.878c0.168,0.277,0.168,0.73,0,1.008
				l-3.09,5.109c-0.167,0.278-0.04,0.505,0.284,0.505h1.935c0.324,0,0.727-0.227,0.894-0.505l1.534-2.535
				c0.167-0.278,0.442-0.278,0.609,0l1.534,2.535c0.168,0.278,0.57,0.505,0.895,0.505h1.935c0.325,0,0.452-0.227,0.285-0.505
				L28.544,14.776z"/>
			<path fill="#55565A" d="M39.761,8.946c-0.068-0.317-0.388-0.577-0.712-0.577h-0.898c-0.324,0-0.768,0-0.983,0
				c-0.216,0-0.658,0-0.982,0h-0.9c-0.324,0-0.644,0.26-0.711,0.577l-2.299,10.868c-0.067,0.317,0.143,0.576,0.467,0.576h1.686
				c0.324,0,0.644-0.259,0.71-0.576l0.165-0.774c0.067-0.317,0.388-0.577,0.711-0.577h2.308c0.324,0,0.644,0.26,0.71,0.577
				l0.165,0.774c0.067,0.317,0.387,0.576,0.71,0.576h1.687c0.324,0,0.534-0.259,0.467-0.576L39.761,8.946z M37.781,15.903h-1.225
				c-0.324,0-0.535-0.259-0.468-0.577l0.696-3.29c0.068-0.316,0.704-0.295,0.772,0.021l0.691,3.268
				C38.315,15.644,38.104,15.903,37.781,15.903z"/>
			<path fill="#55565A" d="M12.436,8.176c-3.695,0-4.975,2.768-4.975,6.182c0,3.415,1.525,6.183,4.975,6.183
				c3.449,0,4.975-2.768,4.975-6.183C17.411,10.944,16.132,8.176,12.436,8.176z M12.436,17.894c-1.508,0-2.081-1.583-2.081-3.536
				c0-1.953,0.447-3.536,2.081-3.536s2.081,1.583,2.081,3.536C14.517,16.311,13.944,17.894,12.436,17.894z"/>
			<path fill="#77777A" d="M77.053,14.768c2.54,2.57,0.682,5.623-1.924,5.623c-0.946,0-3.347,0-3.347,0
				c-0.326,0-0.591-0.266-0.591-0.59v-1.385c0-0.325,0.265-0.59,0.591-0.59h2.721c0.801,0,0.529-0.837,0.146-1.278L72.4,14.025
				c-2.538-2.57-0.682-5.623,1.924-5.623c0.948,0,3.347,0,3.347,0c0.325,0,0.591,0.266,0.591,0.591v1.385
				c0,0.324-0.266,0.589-0.591,0.589H74.95c-0.799,0-0.527,0.838-0.144,1.279L77.053,14.768z"/>
			<path fill="#55565A" d="M5.861,14.768c2.538,2.57,0.681,5.623-1.924,5.623c-0.946,0-3.347,0-3.347,0C0.266,20.39,0,20.125,0,19.8
				v-1.385c0-0.325,0.266-0.59,0.59-0.59h2.722c0.8,0,0.528-0.837,0.145-1.278l-2.248-2.522c-2.538-2.57-0.682-5.623,1.924-5.623
				c0.947,0,3.347,0,3.347,0c0.325,0,0.59,0.266,0.59,0.591v1.385c0,0.324-0.266,0.589-0.59,0.589H3.758
				c-0.8,0-0.528,0.838-0.145,1.279L5.861,14.768z"/>
		</g>
		<g>
			<path fill="#55565A" d="M115.901,7.424h0.564c0.137,0,0.211,0.105,0.166,0.235l-0.506,1.429c-0.049,0.13-0.084,0.35-0.084,0.487
				v1.521c0,0.138,0.112,0.252,0.249,0.252h0.764c0.137,0,0.25-0.115,0.25-0.252V9.811c0-0.137,0.039-0.355,0.084-0.486l0.607-1.678
				c0.047-0.129,0.083-0.348,0.083-0.486V6.209c0-0.138-0.099-0.25-0.218-0.25c-0.123,0-0.334,0-0.473,0h-1.484
				c-0.138,0-0.251,0.112-0.251,0.25v0.964C115.65,7.312,115.763,7.424,115.901,7.424z"/>
			<path fill="#55565A" d="M121.056,7.079h-0.002v0.038c0.001,0.02,0.002,0.039,0.002,0.059V7.079z"/>
			<path fill="#55565A" d="M120.095,7.424c0.208,0,0.523,0,0.737,0c0.124-0.012,0.222-0.119,0.222-0.249V7.117
				c-0.029-0.697-0.562-1.251-1.217-1.251c-0.667,0-1.211,0.586-1.211,1.31v2.955c0,0.716,0.544,1.299,1.211,1.299
				c0.672,0,1.22-0.583,1.22-1.299V9.445c0-0.658-0.456-1.191-1.021-1.279c-0.092-0.038-0.126-0.118-0.135-0.198
				c0-0.105,0-0.199,0-0.315C119.916,7.538,119.993,7.446,120.095,7.424z"/>
			<g>
				<path fill="#55565A" d="M124.469,2.535C122.833,0.9,120.661,0,118.35,0l0,0c-0.139,0-0.251,0.113-0.251,0.251v2.041
					c0,0.138,0.112,0.25,0.251,0.25c1.631,0,3.166,0.636,4.322,1.79c2.381,2.383,2.381,6.259,0,8.642
					c-1.155,1.154-2.689,1.789-4.322,1.789c-1.632,0-3.167-0.635-4.32-1.789c-1.154-1.154-1.791-2.689-1.791-4.321
					c0-0.139-0.111-0.251-0.25-0.251h-2.041c-0.139,0-0.252,0.112-0.252,0.251c0,2.311,0.9,4.485,2.535,6.12
					c1.633,1.634,3.807,2.534,6.119,2.534s4.485-0.9,6.119-2.534C127.844,11.398,127.844,5.909,124.469,2.535z"/>
				<polygon fill="#55565A" points="109.696,8.654 109.696,8.654 109.696,8.653 				"/>
			</g>
		</g>
	</g>
</g>
</svg>
