<svg version="1.1" id="Calque_1" xmlns="http://www.w3.org/2000/svg" xmlns:xlink="http://www.w3.org/1999/xlink" x="0px" y="0px"
	 width="100%" height="100%" viewBox="0 0 515 518.795" enable-background="new 0 0 515 518.795" xml:space="preserve">
	 <text transform="matrix(1 0 0 1 221.1367 256.2002)"><tspan x="0" y="0" fill="#595959" font-family="'EngraversGothicBT-Regular'" font-size="24.6544">B</tspan><tspan x="16.1" y="0" fill="#595959" font-family="'EngraversGothicBT-Regular'" font-size="24.6544">R</tspan><tspan x="29.905" y="0" fill="#595959" font-family="'EngraversGothicBT-Regular'" font-size="24.6544">AND</tspan></text>
<text transform="matrix(1 0 0 1 218.7705 277.0576)" fill="#595959" font-family="'EngraversGothicBT-Regular'" font-size="24.6544">DESIGN</text>

<line fill="none" stroke="#595959" stroke-width="0.5" stroke-miterlimit="10" x1="382.266" y1="291.692" x2="461.816" y2="313.015"/>
<line fill="none" stroke="#595959" stroke-width="0.5" stroke-miterlimit="10" x1="461.802" y1="204.174" x2="382.272" y2="225.474"/>
<line fill="none" stroke="#595959" stroke-width="0.5" stroke-miterlimit="10" x1="461.816" y1="313.015" x2="382.266" y2="291.69"/>
<line fill="none" stroke="#595959" stroke-width="0.5" stroke-miterlimit="10" x1="349.146" y1="349.029" x2="407.364" y2="407.257"/>
<line fill="none" stroke="#595959" stroke-width="0.5" stroke-miterlimit="10" x1="225.609" y1="135.004" x2="204.309" y2="55.474"/>
<line fill="none" stroke="#595959" stroke-width="0.5" stroke-miterlimit="10" x1="110.048" y1="109.884" x2="168.267" y2="168.113"/>
<line fill="none" stroke="#595959" stroke-width="0.5" stroke-miterlimit="10" x1="382.272" y1="225.474" x2="461.802" y2="204.174"/>
<line fill="none" stroke="#595959" stroke-width="0.5" stroke-miterlimit="10" x1="407.393" y1="109.913" x2="349.164" y2="168.13"/>
<line fill="none" stroke="#595959" stroke-width="0.5" stroke-miterlimit="10" x1="135.139" y1="291.666" x2="55.61" y2="312.97"/>
<line fill="none" stroke="#595959" stroke-width="0.5" stroke-miterlimit="10" x1="110.019" y1="407.228" x2="168.249" y2="349.011"/>
<line fill="none" stroke="#595959" stroke-width="0.5" stroke-miterlimit="10" x1="168.248" y1="349.011" x2="110.018" y2="407.228"/>
<line fill="none" stroke="#595959" stroke-width="0.5" stroke-miterlimit="10" x1="204.261" y1="461.682" x2="225.586" y2="382.128"/>
<line fill="none" stroke="#595959" stroke-width="0.5" stroke-miterlimit="10" x1="291.802" y1="382.136" x2="313.104" y2="461.666"/>
<line fill="none" stroke="#595959" stroke-width="0.5" stroke-miterlimit="10" x1="407.364" y1="407.257" x2="349.146" y2="349.029"/>
<line fill="none" stroke="#595959" stroke-width="0.5" stroke-miterlimit="10" x1="225.586" y1="382.128" x2="204.261" y2="461.682"/>
<line fill="none" stroke="#595959" stroke-width="0.5" stroke-miterlimit="10" x1="313.104" y1="461.666" x2="291.802" y2="382.136"/>
<line fill="none" stroke="#595959" stroke-width="0.5" stroke-miterlimit="10" x1="135.146" y1="225.449" x2="55.596" y2="204.126"/>
<line fill="none" stroke="#595959" stroke-width="0.5" stroke-miterlimit="10" x1="55.61" y1="312.97" x2="135.139" y2="291.666"/>
<line fill="none" stroke="#595959" stroke-width="0.5" stroke-miterlimit="10" x1="349.164" y1="168.131" x2="407.393" y2="109.913"/>
<line fill="none" stroke="#595959" stroke-width="0.5" stroke-miterlimit="10" x1="313.151" y1="55.461" x2="291.826" y2="135.009"/>
<line fill="none" stroke="#595959" stroke-width="0.5" stroke-miterlimit="10" x1="291.826" y1="135.01" x2="313.151" y2="55.462"/>
<line fill="none" stroke="#595959" stroke-width="0.5" stroke-miterlimit="10" x1="204.309" y1="55.475" x2="225.609" y2="135.005"/>
<line fill="none" stroke="#595959" stroke-width="0.5" stroke-miterlimit="10" x1="168.266" y1="168.113" x2="110.047" y2="109.883"/>
<line fill="none" stroke="#595959" stroke-width="0.5" stroke-miterlimit="10" x1="55.597" y1="204.126" x2="135.146" y2="225.45"/>
<text transform="matrix(1 0 0 1 325.1338 119.3711)" fill="#595959" font-family="'EngraversGothicBT-Regular'" font-size="15.1719" id="apps" class="map_item">APPS</text>
<text transform="matrix(1 0 0 1 382.042 184.2305)" fill="#595959" font-family="'EngraversGothicBT-Regular'" font-size="15.1719" id="trade" class="map_item">TRADE</text>
<text transform="matrix(1 0 0 1 403.2695 263.2764)" fill="#595959" font-family="'EngraversGothicBT-Regular'" font-size="15.1719" id="event" class="map_item">EVENT</text>
<text transform="matrix(1 0 0 1 379.1904 342.792)" fill="#595959" font-family="'EngraversGothicBT-Regular'" font-size="15.1719" id="street" class="map_item">STREET</text>
<text transform="matrix(1 0 0 1 244.6006 436.3428)" fill="#595959" font-family="'EngraversGothicBT-Regular'" font-size="15.1719" id="film" class="map_item">FILM</text>
<text transform="matrix(1 0 0 1 324.4795 407.2578)" fill="#595959" font-family="'EngraversGothicBT-Regular'" font-size="15.1719" id="print" class="map_item">PRINT</text>
<text transform="matrix(1 0 0 1 146.5889 407.2578)" fill="#595959" font-family="'EngraversGothicBT-Regular'" font-size="15.1719" id="gaming" class="map_item">GAMING</text>
<text transform="matrix(1 0 0 1 68.3623 342.792)" fill="#595959" font-family="'EngraversGothicBT-Regular'" font-size="15.1719" id="interactive" class="map_item">INTERACTIVE</text>
<text transform="matrix(1 0 0 1 71.0786 264.0947)" fill="#595959" font-family="'EngraversGothicBT-Regular'" font-size="15.1719" id="social" class="map_item">SOCIAL</text>
<text transform="matrix(1 0 0 1 65.8887 182.4561)" fill="#595959" font-family="'EngraversGothicBT-Regular'" font-size="15.1719" id="acquisition" class="map_item">ACQUISITION</text>
<text transform="matrix(1 0 0 1 230.5352 91.6973)" fill="#595959" font-family="'EngraversGothicBT-Regular'" font-size="15.1719" id="website" class="map_item">WEBSITE</text>
<text transform="matrix(1 0 0 1 157.5732 119.3711)" fill="#595959" font-family="'EngraversGothicBT-Regular'" font-size="15.1719" id="crm" class="map_item">CRM</text>
<text transform="matrix(0.9849 -0.1734 0.1734 0.9849 209.8545 23.9458)" fill="#595959" font-family="'EngraversGothicBT-Regular'" font-size="24.6542">P</text>
<text transform="matrix(0.9929 -0.1193 0.1193 0.9929 223.8525 21.5059)" fill="#595959" font-family="'EngraversGothicBT-Regular'" font-size="24.6543">L</text>
<text transform="matrix(0.9979 -0.0647 0.0647 0.9979 235.9004 20.0229)" fill="#595959" font-family="'EngraversGothicBT-Regular'" font-size="24.6542">A</text>
<text transform="matrix(0.9998 -0.0198 0.0198 0.9998 248.8105 19.1978)" fill="#595959" font-family="'EngraversGothicBT-Regular'" font-size="24.6543">T</text>
<text transform="matrix(0.9997 0.0262 -0.0262 0.9997 258.9453 18.9722)" fill="#595959" font-family="'EngraversGothicBT-Regular'" font-size="24.6543">F</text>
<text transform="matrix(0.9966 0.0828 -0.0828 0.9966 270.8936 19.2285)" fill="#595959" font-family="'EngraversGothicBT-Regular'" font-size="24.6542">O</text>
<text transform="matrix(0.9895 0.1446 -0.1446 0.9895 286.2773 20.5137)" fill="#595959" font-family="'EngraversGothicBT-Regular'" font-size="24.6543">R</text>
<text transform="matrix(0.9778 0.2097 -0.2097 0.9778 300.585 22.5474)" fill="#595959" font-family="'EngraversGothicBT-Regular'" font-size="24.6542">M</text>
<text transform="matrix(0.071 0.9975 -0.9975 0.071 497.3945 235.3145)" fill="#595959" font-family="'EngraversGothicBT-Regular'" font-size="24.6546">F</text>
<text transform="matrix(0.0345 0.9994 -0.9994 0.0345 498.1934 247.3496)" fill="#595959" font-family="'EngraversGothicBT-Regular'" font-size="24.6545">I</text>
<text transform="matrix(-0.0046 1 -1 -0.0046 498.4629 252.8975)" fill="#595959" font-family="'EngraversGothicBT-Regular'" font-size="24.6545">E</text>
<text transform="matrix(-0.0571 0.9984 -0.9984 -0.0571 498.3906 266.1348)" fill="#595959" font-family="'EngraversGothicBT-Regular'" font-size="24.6545">L</text>
<text transform="matrix(-0.114 0.9935 -0.9935 -0.114 497.7529 278.249)" fill="#595959" font-family="'EngraversGothicBT-Regular'" font-size="24.6545">D</text>
<text transform="matrix(-0.223 -0.9748 0.9748 -0.223 25.7588 314.9561)" fill="#595959" font-family="'EngraversGothicBT-Regular'" font-size="24.6544">I</text>
<text transform="matrix(-0.1811 -0.9835 0.9835 -0.1811 24.415 309.5439)" fill="#595959" font-family="'EngraversGothicBT-Regular'" font-size="24.6544">N</text>
<text transform="matrix(-0.126 -0.992 0.992 -0.126 21.7559 294.916)" fill="#595959" font-family="'EngraversGothicBT-Regular'" font-size="24.6544">F</text>
<text transform="matrix(-0.0761 -0.9971 0.9971 -0.0761 20.2329 282.9756)" fill="#595959" font-family="'EngraversGothicBT-Regular'" font-size="24.6544">L</text>
<text transform="matrix(-0.0219 -0.9998 0.9998 -0.0219 19.2793 270.915)" fill="#595959" font-family="'EngraversGothicBT-Regular'" font-size="24.6544">U</text>
<text transform="matrix(0.0347 -0.9994 0.9994 0.0347 18.9741 256.8545)" fill="#595959" font-family="'EngraversGothicBT-Regular'" font-size="24.6545">E</text>
<text transform="matrix(0.0931 -0.9957 0.9957 0.0931 19.4072 243.5654)" fill="#595959" font-family="'EngraversGothicBT-Regular'" font-size="24.6544">N</text>
<text transform="matrix(0.154 -0.9881 0.9881 0.154 20.79 228.752)" fill="#595959" font-family="'EngraversGothicBT-Regular'" font-size="24.6545">C</text>
<text transform="matrix(0.2111 -0.9775 0.9775 0.2111 23.061 214.2812)" fill="#595959" font-family="'EngraversGothicBT-Regular'" font-size="24.6544">E</text>
<text transform="matrix(0.9905 0.1378 -0.1378 0.9905 216.251 509.8516)" fill="#595959" font-family="'EngraversGothicBT-Regular'" font-size="23.8427">C</text>
<text transform="matrix(0.9969 0.0782 -0.0782 0.9969 231.1074 511.9131)" fill="#595959" font-family="'EngraversGothicBT-Regular'" font-size="23.8428">O</text>
<text transform="matrix(0.9998 0.018 -0.018 0.9998 246.7461 513.1123)" fill="#595959" font-family="'EngraversGothicBT-Regular'" font-size="23.8428">N</text>
<text transform="matrix(0.9995 -0.0317 0.0317 0.9995 261.8271 513.3115)" fill="#595959" font-family="'EngraversGothicBT-Regular'" font-size="23.8428">T</text>
<text transform="matrix(0.9969 -0.0782 0.0782 0.9969 272.2295 513.0078)" fill="#595959" font-family="'EngraversGothicBT-Regular'" font-size="23.8428">E</text>
<text transform="matrix(0.991 -0.1341 0.1341 0.991 285.7725 511.9531)" fill="#595959" font-family="'EngraversGothicBT-Regular'" font-size="23.8427">N</text>
<text transform="matrix(0.9831 -0.1832 0.1832 0.9831 300.6836 509.8643)" fill="#595959" font-family="'EngraversGothicBT-Regular'" font-size="23.8427">T</text>
<g>
	<path fill="none" stroke="#595959" stroke-width="0.5" stroke-miterlimit="10" d="M204.307,500.489
		c-86.486-19.361-155.902-83.917-182.168-167.573"/>
	<path fill="none" stroke="#595959" stroke-width="0.5" stroke-miterlimit="10" d="M500.614,313.018
		c-20.19,90.099-89.428,161.665-178.211,185.2"/>
	<path fill="none" stroke="#595959" stroke-width="0.5" stroke-miterlimit="10" d="M334.556,22.482
		c86.549,27.784,152.369,101.841,168.333,193.049"/>
	<path fill="none" stroke="#595959" stroke-width="0.5" stroke-miterlimit="10" d="M22.136,184.238
		c0.187-0.598,0.376-1.194,0.569-1.79c25.716-79.789,90.773-141.917,172.318-163.529"/>
</g>

</svg>
